<svg width="248" height="107" viewBox="0 0 248 107" fill="none" xmlns="http://www.w3.org/2000/svg">
<path d="M46.7115 52.2466C46.7501 52.0226 46.7992 51.8025 46.8588 51.5863L35.9137 48.4321C35.695 49.0095 35.4336 49.5697 35.1315 50.1081L46.7115 52.2466Z" fill="#7A48FF"/>
<path d="M61.6289 70.7341L56.4148 59.6797C56.2133 59.7735 56.0068 59.8576 55.7953 59.9321L60.362 72.7292C60.7202 72.0256 61.1444 71.3576 61.6289 70.7341V70.7341Z" fill="#7A48FF"/>
<path d="M58.1961 58.4824C58.0323 58.6343 57.8613 58.7782 57.6833 58.9139L64.6577 67.9398C65.1721 67.603 65.7108 67.3047 66.2694 67.0475L58.1961 58.4824Z" fill="#7A48FF"/>
<path d="M39.5246 66.673L48.5239 58.1905C48.3695 58.0291 48.2231 57.8605 48.0847 57.6846L37.1715 66.1173C37.9721 66.2254 38.7602 66.4115 39.5246 66.673Z" fill="#7A48FF"/>
<path d="M95.2443 44.0191C95.2437 44.6092 95.2014 45.1985 95.1179 45.7826L105.876 43.7877C105.91 43.7813 105.943 43.768 105.972 43.7485C106.002 43.729 106.027 43.7037 106.046 43.6743C106.065 43.6449 106.078 43.6118 106.084 43.5772C106.09 43.5426 106.089 43.5071 106.081 43.4729L105.564 41.2644C105.377 40.469 105.173 39.6821 104.953 38.9037C104.943 38.8707 104.927 38.8398 104.906 38.8129C104.884 38.786 104.858 38.7636 104.828 38.747C104.798 38.7303 104.765 38.7198 104.73 38.716C104.696 38.7122 104.662 38.7151 104.629 38.7247L94.9917 41.5097C95.1601 42.3355 95.2447 43.1762 95.2443 44.0191V44.0191Z" fill="#7A48FF"/>
<path d="M49.3266 58.9094C49.149 58.7738 48.9785 58.63 48.8149 58.478L40.6715 67.1304C41.2338 67.3878 41.7761 67.6867 42.2939 68.0247L49.3266 58.9094Z" fill="#7A48FF"/>
<path d="M58.9281 57.688C58.7894 57.864 58.6427 58.0328 58.4878 58.1944L67.408 66.59C68.1654 66.3282 68.9464 66.1406 69.7401 66.0298L58.9281 57.688Z" fill="#7A48FF"/>
<path d="M57.432 47.7518L83.5736 9.53304C83.5934 9.50402 83.6072 9.47127 83.614 9.43678C83.6208 9.40229 83.6206 9.36677 83.6133 9.33238C83.606 9.29798 83.5918 9.26542 83.5716 9.23667C83.5514 9.20792 83.5255 9.18357 83.4956 9.1651L81.5656 7.97342C80.87 7.54464 80.1686 7.13385 79.4613 6.74106C79.4312 6.72443 79.3981 6.71392 79.364 6.71011C79.3298 6.7063 79.2952 6.70927 79.2622 6.71885C79.2292 6.72843 79.1984 6.74444 79.1715 6.76595C79.1447 6.78747 79.1224 6.81406 79.1059 6.84422L56.8529 47.3912C57.0523 47.502 57.2453 47.6222 57.432 47.7518Z" fill="#7A48FF"/>
<path d="M66.0135 22.8648C66.0146 24.8454 65.5433 26.7978 64.6385 28.5597C63.7338 30.3217 62.4219 31.8424 60.8116 32.9956L55.8423 46.9315C56.0575 47.0089 56.2676 47.0965 56.4726 47.1941L76.2131 5.31648C76.228 5.28468 76.2364 5.25017 76.2377 5.21503C76.239 5.1799 76.2331 5.14487 76.2204 5.11207C76.2078 5.07927 76.1886 5.04938 76.164 5.02421C76.1395 4.99903 76.1101 4.9791 76.0776 4.96561L73.983 4.09538C73.2282 3.78245 72.4705 3.48821 71.7098 3.21267C71.6774 3.20104 71.6431 3.19591 71.6088 3.19757C71.5744 3.19923 71.5407 3.20766 71.5097 3.22236C71.4786 3.23706 71.4507 3.25775 71.4277 3.28325C71.4046 3.30874 71.3868 3.33854 71.3752 3.37093L65.583 19.6146C65.8688 20.6743 66.0136 21.7672 66.0135 22.8648Z" fill="#7A48FF"/>
<path d="M64.1971 16.3807L68.2507 2.31453C68.2605 2.28075 68.2633 2.24534 68.2589 2.21045C68.2546 2.17556 68.2432 2.14192 68.2255 2.11155C68.2078 2.08118 68.1841 2.05473 68.1558 2.03378C68.1276 2.01283 68.0954 1.99784 68.0612 1.98969L65.8547 1.46411C65.0597 1.27535 64.2648 1.10554 63.47 0.954662C63.4362 0.948332 63.4015 0.948734 63.3678 0.955845C63.3342 0.962956 63.3023 0.976636 63.2739 0.996102C63.2456 1.01557 63.2214 1.04043 63.2027 1.06928C63.184 1.09812 63.1711 1.13038 63.1649 1.16419L61.0032 12.8702C62.2816 13.8264 63.3657 15.0179 64.1971 16.3807V16.3807Z" fill="#7A48FF"/>
<path d="M94.182 38.9827L103.67 35.597C103.703 35.5851 103.733 35.5667 103.759 35.5428C103.785 35.5189 103.806 35.4901 103.82 35.458C103.834 35.4258 103.842 35.3912 103.842 35.356C103.843 35.3208 103.836 35.2859 103.823 35.2534L102.962 33.1551C102.651 32.3994 102.325 31.6549 101.983 30.9214C101.969 30.8903 101.948 30.8623 101.923 30.8392C101.897 30.816 101.867 30.7981 101.835 30.7864C101.803 30.7748 101.768 30.7696 101.734 30.7713C101.7 30.7729 101.666 30.7814 101.635 30.796L91.8105 35.43C92.7993 36.4692 93.6015 37.671 94.182 38.9827V38.9827Z" fill="#7A48FF"/>
<path d="M89.6579 33.6208L100.179 27.8365C100.21 27.8195 100.237 27.7965 100.259 27.7688C100.28 27.7411 100.296 27.7093 100.305 27.6753C100.314 27.6414 100.316 27.6059 100.311 27.5711C100.306 27.5363 100.294 27.5029 100.275 27.4729L99.091 25.5385C98.6638 24.842 98.2233 24.1589 97.7693 23.4892C97.75 23.4607 97.7252 23.4364 97.6964 23.4176C97.6677 23.3988 97.6354 23.3858 97.6017 23.3795C97.5679 23.3731 97.5332 23.3735 97.4995 23.3806C97.4659 23.3877 97.434 23.4014 97.4056 23.4208L85.1973 31.7846C86.79 32.0987 88.3056 32.7226 89.6579 33.6208V33.6208Z" fill="#7A48FF"/>
<path d="M58.2681 48.4343L90.0084 14.7101C90.0325 14.6845 90.0512 14.6543 90.0632 14.6213C90.0753 14.5883 90.0806 14.5531 90.0787 14.518C90.0768 14.4829 90.0678 14.4486 90.0523 14.417C90.0367 14.3855 90.015 14.3574 89.9883 14.3346L88.2657 12.8589C87.6448 12.3277 87.0153 11.8135 86.3772 11.316C86.35 11.295 86.319 11.2795 86.2858 11.2704C86.2526 11.2614 86.218 11.259 86.1839 11.2633C86.1498 11.2677 86.1169 11.2788 86.0871 11.2959C86.0572 11.313 86.0311 11.3358 86.0101 11.363L57.7525 47.9885C57.9317 48.1287 58.1036 48.2773 58.2681 48.4343Z" fill="#7A48FF"/>
<path d="M58.9995 49.2505L70.9646 40.0049C71.754 37.6864 73.2083 35.6516 75.1464 34.154C77.0844 32.6565 79.4203 31.7626 81.863 31.5836L95.651 20.9294C95.6788 20.908 95.702 20.881 95.7191 20.8503C95.7362 20.8196 95.7469 20.7858 95.7506 20.7508C95.7542 20.7158 95.7508 20.6805 95.7404 20.6469C95.73 20.6133 95.7129 20.5822 95.6901 20.5554L94.2208 18.8273C93.6911 18.2052 93.1503 17.5984 92.5983 17.0069C92.5748 16.9818 92.5466 16.9616 92.5152 16.9475C92.4839 16.9333 92.45 16.9255 92.4157 16.9244C92.3813 16.9234 92.3471 16.9291 92.3149 16.9413C92.2828 16.9536 92.2534 16.972 92.2284 16.9956L58.5608 48.7298C58.7153 48.896 58.8615 49.0696 58.9995 49.2505Z" fill="#7A48FF"/>
<path d="M51.208 59.9281C50.9969 59.8534 50.7907 59.769 50.5895 59.6748L45.3338 70.8242C45.8212 71.4507 46.2477 72.1224 46.6074 72.8299L51.208 59.9281Z" fill="#7A48FF"/>
<path d="M59.7743 50.5408C59.8687 50.7457 59.9532 50.9557 60.0276 51.1709L70.7522 47.3438C70.5883 46.7493 70.4689 46.1435 70.3951 45.5312L59.7743 50.5408Z" fill="#7A48FF"/>
<path d="M71.0995 48.4141L60.154 51.5772C60.214 51.7936 60.2635 52.0141 60.3025 52.2386L71.8795 50.0918C71.5781 49.5528 71.3174 48.9919 71.0995 48.4141V48.4141Z" fill="#7A48FF"/>
<path d="M49.6433 59.1387L43.1477 68.6352C43.633 69.0137 44.0897 69.4275 44.5142 69.873L50.2145 59.4866C50.0181 59.3797 49.8277 59.2638 49.6433 59.1387Z" fill="#7A48FF"/>
<path d="M34.5084 51.1064C34.0529 51.7646 33.5354 52.3776 32.9629 52.937L46.6123 53.3113C46.6159 53.0839 46.6303 52.8592 46.6553 52.6375L34.5084 51.1064Z" fill="#7A48FF"/>
<path d="M46.9856 51.1773C47.0596 50.9626 47.1436 50.753 47.2376 50.5483L36.6234 45.5449C36.549 46.1562 36.4292 46.7611 36.265 47.3546L46.9856 51.1773Z" fill="#7A48FF"/>
<path d="M91.9938 52.4158L106.747 52.0003C106.783 51.9993 106.817 51.9912 106.849 51.9765C106.881 51.9617 106.91 51.9407 106.933 51.9146C106.957 51.8884 106.975 51.8578 106.986 51.8246C106.997 51.7913 107.002 51.7561 106.999 51.721L106.83 49.4591C106.768 48.6444 106.688 47.8354 106.59 47.0323C106.586 46.9982 106.575 46.9652 106.558 46.9354C106.541 46.9055 106.519 46.8792 106.491 46.8581C106.464 46.837 106.433 46.8215 106.4 46.8125C106.367 46.8034 106.332 46.801 106.298 46.8053L94.4891 48.3027C93.9322 49.8227 93.0847 51.2198 91.9938 52.4158V52.4158Z" fill="#7A48FF"/>
<path d="M72.5007 51.0908L60.3591 52.6303C60.3846 52.8524 60.3992 53.0775 60.403 53.3056L74.0412 52.9215C73.4705 52.3618 72.9547 51.7488 72.5007 51.0908V51.0908Z" fill="#7A48FF"/>
<path d="M57.366 59.1431C57.1814 59.2679 56.9906 59.3837 56.7936 59.4907L62.4506 69.7801C62.8728 69.3368 63.3269 68.9251 63.8093 68.5481L57.366 59.1431Z" fill="#7A48FF"/>
<path d="M51.5652 46.8049C51.7822 46.7413 52.0035 46.6883 52.229 46.6459L50.0387 34.8346C49.2845 34.6142 48.5531 34.3224 47.8542 33.9634L51.5652 46.8049Z" fill="#7A48FF"/>
<path d="M58.7875 11.5498L60.1614 0.649589C60.1658 0.614707 60.1631 0.579296 60.1534 0.545497C60.1437 0.511699 60.1273 0.480215 60.1051 0.452953C60.0829 0.42569 60.0554 0.403213 60.0243 0.386884C59.9931 0.370554 59.959 0.360711 59.9239 0.357949L57.6627 0.179769C56.8481 0.116169 56.0365 0.0712593 55.2279 0.0450393C55.1935 0.0440085 55.1593 0.0497708 55.1271 0.0619957C55.095 0.0742205 55.0656 0.0926675 55.0406 0.116279C55.0156 0.139891 54.9955 0.168203 54.9815 0.199592C54.9675 0.230982 54.9598 0.264831 54.9589 0.299199L54.6806 10.4468C56.1029 10.575 57.4924 10.9482 58.7875 11.5498V11.5498Z" fill="#7A48FF"/>
<path d="M36.7196 44.0192C36.7196 44.109 36.7148 44.1977 36.7129 44.2871L47.4262 50.1668C47.5335 49.9668 47.6501 49.7729 47.776 49.585L36.5361 41.897C36.6574 42.5979 36.7188 43.3079 36.7196 44.0192V44.0192Z" fill="#7A48FF"/>
<path d="M52.6231 46.5841C52.8469 46.5554 53.0737 46.5376 53.3038 46.5308L52.9881 35.3228C52.377 35.296 51.7686 35.2243 51.168 35.1084L52.6231 46.5841Z" fill="#7A48FF"/>
<path d="M56.9416 34.8635L54.7665 46.642C54.9921 46.6837 55.2136 46.736 55.4311 46.7992L59.1131 34.0225C58.4173 34.3704 57.6903 34.652 56.9416 34.8635V34.8635Z" fill="#7A48FF"/>
<path d="M70.4906 41.8599L59.2319 49.5731C59.3584 49.7608 59.4756 49.9549 59.5835 50.1553L70.3067 44.2598C70.3051 44.1794 70.3006 44.0997 70.3006 44.0188C70.3015 43.295 70.3651 42.5727 70.4906 41.8599V41.8599Z" fill="#7A48FF"/>
<path d="M53.6912 46.5301C53.9212 46.5361 54.1481 46.5532 54.3721 46.5813L55.816 35.126C55.2158 35.2366 54.6083 35.3032 53.9984 35.3251L53.6912 46.5301Z" fill="#7A48FF"/>
<path d="M51.6108 60.0557L47.3838 74.7236C48.119 77.0622 48.149 79.5656 47.4702 81.9212C46.7913 84.2768 45.4337 86.3803 43.5667 87.969L38.7494 104.685C38.7396 104.719 38.7368 104.755 38.7412 104.79C38.7455 104.824 38.7569 104.858 38.7746 104.888C38.7923 104.919 38.816 104.945 38.8443 104.966C38.8725 104.987 38.9047 105.002 38.9389 105.01L41.1454 105.536C41.9404 105.725 42.7353 105.894 43.5302 106.045C43.564 106.052 43.5987 106.051 43.6323 106.044C43.666 106.037 43.6979 106.023 43.7262 106.004C43.7545 105.984 43.7788 105.96 43.7975 105.931C43.8162 105.902 43.829 105.87 43.8352 105.836L52.2614 60.2075C52.0406 60.1672 51.8238 60.1166 51.6108 60.0557Z" fill="#7A48FF"/>
<path d="M71.1128 90.8405C69.5053 90.7958 67.9219 90.4392 66.4505 89.7905L71.4033 103.67C71.4151 103.703 71.4335 103.733 71.4574 103.759C71.4813 103.785 71.5102 103.805 71.5423 103.82C71.5744 103.834 71.6091 103.842 71.6442 103.842C71.6794 103.843 71.7143 103.836 71.7468 103.823L73.8452 102.961C74.6008 102.651 75.3454 102.324 76.0788 101.983C76.11 101.968 76.1379 101.948 76.1611 101.922C76.1842 101.897 76.2021 101.867 76.2138 101.835C76.2254 101.803 76.2306 101.768 76.2289 101.734C76.2273 101.7 76.2189 101.666 76.2042 101.635L71.1128 90.8405Z" fill="#7A48FF"/>
<path d="M63.4452 87.9141C61.5574 86.3235 60.184 84.2086 59.4987 81.8372C58.8133 79.4657 58.8469 76.9442 59.5952 74.5918L55.3953 60.0586C55.1823 60.1191 54.9652 60.1694 54.7442 60.2096L63.2125 105.876C63.2189 105.91 63.2322 105.943 63.2517 105.973C63.2712 106.002 63.2964 106.027 63.3259 106.046C63.3553 106.065 63.3883 106.078 63.423 106.084C63.4576 106.091 63.4931 106.09 63.5273 106.082L65.7358 105.564C66.5312 105.377 67.3181 105.173 68.0965 104.953C68.1295 104.943 68.1604 104.927 68.1873 104.906C68.2142 104.885 68.2366 104.858 68.2532 104.828C68.2699 104.798 68.2804 104.765 68.2842 104.731C68.2881 104.696 68.2851 104.662 68.2755 104.629L63.4452 87.9141Z" fill="#7A48FF"/>
<path d="M52.6472 60.2666L46.8387 106.35C46.8343 106.385 46.837 106.421 46.8467 106.454C46.8564 106.488 46.8728 106.52 46.895 106.547C46.9172 106.574 46.9447 106.597 46.9758 106.613C47.007 106.629 47.0411 106.639 47.0761 106.642L49.3374 106.82C50.152 106.884 50.9636 106.929 51.7722 106.955C51.8066 106.956 51.8408 106.95 51.873 106.938C51.9051 106.926 51.9345 106.907 51.9595 106.884C51.9845 106.86 52.0046 106.832 52.0186 106.8C52.0326 106.769 52.0403 106.735 52.0412 106.701L53.3131 60.317C53.0882 60.3108 52.8663 60.294 52.6472 60.2666Z" fill="#7A48FF"/>
<path d="M53.692 60.3175L54.9997 106.748C55.0007 106.783 55.0088 106.817 55.0236 106.849C55.0383 106.881 55.0594 106.91 55.0855 106.933C55.1116 106.957 55.1422 106.975 55.1755 106.986C55.2087 106.998 55.244 107.002 55.279 106.999L57.5409 106.83C58.3557 106.768 59.1646 106.688 59.9677 106.59C60.0018 106.586 60.0348 106.575 60.0647 106.558C60.0946 106.541 60.1208 106.519 60.1419 106.491C60.163 106.464 60.1785 106.433 60.1876 106.4C60.1966 106.367 60.1991 106.332 60.1947 106.298L54.3582 60.2681C54.1391 60.295 53.9171 60.3115 53.692 60.3175Z" fill="#7A48FF"/>
<path d="M24.478 84.3359L16.9917 92.2901C16.9676 92.3157 16.9489 92.3459 16.9369 92.3789C16.9248 92.412 16.9195 92.4471 16.9214 92.4822C16.9233 92.5173 16.9323 92.5517 16.9479 92.5832C16.9634 92.6147 16.9852 92.6428 17.0119 92.6656L18.7344 94.1413C19.3554 94.6725 19.9849 95.1867 20.6229 95.6842C20.6501 95.7052 20.6812 95.7207 20.7143 95.7298C20.7475 95.7388 20.7821 95.7412 20.8162 95.7369C20.8503 95.7325 20.8832 95.7214 20.9131 95.7043C20.9429 95.6872 20.969 95.6644 20.99 95.6371L27.1063 87.7096C26.0432 86.7441 25.1541 85.6029 24.478 84.3359V84.3359Z" fill="#7A48FF"/>
<path d="M35.8536 90.9356L30.787 101.684C30.7721 101.716 30.7637 101.75 30.7624 101.785C30.7611 101.82 30.767 101.856 30.7797 101.888C30.7923 101.921 30.8115 101.951 30.836 101.976C30.8606 102.001 30.89 102.021 30.9225 102.035L33.0171 102.905C33.7719 103.218 34.5296 103.512 35.2903 103.788C35.3227 103.799 35.357 103.804 35.3914 103.803C35.4257 103.801 35.4594 103.793 35.4905 103.778C35.5215 103.763 35.5494 103.743 35.5725 103.717C35.5955 103.692 35.6133 103.662 35.6249 103.629L40.5275 89.8804C39.0529 90.5324 37.4654 90.8908 35.8536 90.9356V90.9356Z" fill="#7A48FF"/>
<path d="M29.0937 89.1821L23.4265 97.4675C23.4067 97.4966 23.3929 97.5293 23.3861 97.5638C23.3793 97.5983 23.3795 97.6338 23.3868 97.6682C23.3941 97.7026 23.4083 97.7352 23.4285 97.7639C23.4487 97.7927 23.4746 97.817 23.5045 97.8355L25.4345 99.0272C26.1301 99.4559 26.8315 99.8667 27.5388 100.26C27.5689 100.276 27.602 100.287 27.6361 100.29C27.6703 100.294 27.7049 100.291 27.7379 100.282C27.7709 100.272 27.8017 100.256 27.8285 100.235C27.8554 100.213 27.8777 100.187 27.8942 100.156L33.0784 90.7103C31.6718 90.4352 30.3236 89.9182 29.0937 89.1821V89.1821Z" fill="#7A48FF"/>
<path d="M82.4842 84.25C81.8086 85.5134 80.9213 86.6514 79.8607 87.6146L86.0706 95.6511C86.0921 95.6789 86.119 95.702 86.1497 95.7191C86.1804 95.7363 86.2143 95.747 86.2492 95.7506C86.2842 95.7543 86.3195 95.7508 86.3531 95.7404C86.3867 95.73 86.4178 95.7129 86.4446 95.6901L88.1727 94.2209C88.7948 93.6912 89.4016 93.1503 89.9931 92.5984C90.0182 92.5748 90.0384 92.5466 90.0525 92.5153C90.0667 92.4839 90.0745 92.4501 90.0756 92.4157C90.0766 92.3814 90.0709 92.3472 90.0587 92.315C90.0464 92.2829 90.028 92.2535 90.0044 92.2284L82.4842 84.25Z" fill="#7A48FF"/>
<path d="M105.836 63.1648L60.277 54.7515C60.2336 54.9738 60.1797 55.1921 60.1154 55.4064L104.686 68.2507C104.719 68.2604 104.755 68.2632 104.79 68.2589C104.825 68.2545 104.858 68.2432 104.889 68.2254C104.919 68.2077 104.945 68.184 104.966 68.1558C104.987 68.1275 105.002 68.0953 105.01 68.0611L105.536 65.8546C105.725 65.0597 105.895 64.2647 106.045 63.4699C106.052 63.4361 106.051 63.4014 106.044 63.3677C106.037 63.3341 106.023 63.3022 106.004 63.2738C105.985 63.2455 105.96 63.2213 105.931 63.2026C105.902 63.1839 105.87 63.171 105.836 63.1648V63.1648Z" fill="#7A48FF"/>
<path d="M51.9057 0.0431209V0.0424805L51.8758 0.0437207L51.8766 0.0442209L51.9057 0.0431209Z" fill="#7A48FF"/>
<path d="M106.701 54.9591L89.5465 54.4887C87.4311 55.859 84.9499 56.5555 82.4305 56.4864C79.911 56.4173 77.4717 55.5859 75.4346 54.1017L60.3992 53.6895C60.3906 53.9168 60.3711 54.1412 60.3407 54.3625L106.35 60.1616C106.385 60.166 106.421 60.1633 106.455 60.1536C106.488 60.1439 106.52 60.1275 106.547 60.1053C106.574 60.0831 106.597 60.0556 106.613 60.0245C106.629 59.9933 106.639 59.9592 106.642 59.9242L106.82 57.6629C106.884 56.8483 106.929 56.0367 106.955 55.2281C106.956 55.1937 106.95 55.1595 106.938 55.1274C106.926 55.0952 106.907 55.0658 106.884 55.0408C106.86 55.0159 106.832 54.9958 106.8 54.9818C106.769 54.9677 106.735 54.96 106.701 54.9591Z" fill="#7A48FF"/>
<path d="M83.8654 76.9277C84.0568 78.537 83.9303 80.1682 83.493 81.7287L92.2902 90.0084C92.3158 90.0325 92.3461 90.0512 92.3791 90.0632C92.4121 90.0753 92.4472 90.0806 92.4823 90.0787C92.5174 90.0768 92.5518 90.0678 92.5833 90.0523C92.6149 90.0367 92.6429 90.015 92.6658 89.9883L94.1415 88.2657C94.6726 87.6448 95.1869 87.0153 95.6843 86.3772C95.7054 86.35 95.7209 86.319 95.7299 86.2858C95.739 86.2526 95.7414 86.218 95.737 86.1839C95.7326 86.1498 95.7216 86.1169 95.7045 86.0871C95.6874 86.0573 95.6645 86.0311 95.6373 86.0101L83.8654 76.9277Z" fill="#7A48FF"/>
<path d="M23.0143 78.4728C23.0154 77.9759 23.0458 77.4796 23.1056 76.9863L11.3492 86.0707C11.3213 86.0922 11.2982 86.1191 11.2811 86.1498C11.2639 86.1805 11.2532 86.2144 11.2496 86.2493C11.2459 86.2843 11.2494 86.3196 11.2598 86.3532C11.2702 86.3868 11.2873 86.4179 11.31 86.4447L12.7793 88.1728C13.309 88.7949 13.8498 89.4017 14.4018 89.9932C14.4254 90.0183 14.4536 90.0385 14.4849 90.0526C14.5163 90.0668 14.5501 90.0746 14.5845 90.0756C14.6188 90.0767 14.6531 90.0709 14.6852 90.0587C14.7173 90.0465 14.7468 90.0281 14.7718 90.0045L23.4687 81.8069C23.1673 80.7212 23.0145 79.5996 23.0143 78.4728V78.4728Z" fill="#7A48FF"/>
<path d="M77.8783 89.084C76.6517 89.819 75.3071 90.3361 73.9041 90.6125L79.1636 100.179C79.1806 100.21 79.2036 100.237 79.2313 100.258C79.259 100.28 79.2908 100.296 79.3248 100.305C79.3587 100.314 79.3942 100.316 79.429 100.311C79.4638 100.306 79.4972 100.294 79.5271 100.275L81.4616 99.0909C82.1581 98.6637 82.8412 98.2231 83.5109 97.7692C83.5393 97.7499 83.5636 97.7251 83.5825 97.6963C83.6013 97.6675 83.6142 97.6353 83.6206 97.6015C83.6269 97.5678 83.6266 97.533 83.6195 97.4994C83.6124 97.4658 83.5987 97.4338 83.5793 97.4055L77.8783 89.084Z" fill="#7A48FF"/>
<path d="M100.156 79.106L59.5203 56.8042C59.41 57 59.2906 57.1896 59.1622 57.373L71.6438 65.9104C74.1011 65.9424 76.4942 66.6997 78.5226 68.0871C80.551 69.4745 82.1243 71.4303 83.045 73.7088L97.4673 83.5737C97.4963 83.5935 97.5291 83.6073 97.5636 83.6141C97.598 83.6209 97.6336 83.6207 97.668 83.6134C97.7024 83.6061 97.7349 83.5919 97.7637 83.5717C97.7924 83.5514 97.8168 83.5256 97.8352 83.4957L99.0269 81.5657C99.4557 80.8701 99.8665 80.1687 100.259 79.4614C100.276 79.4313 100.286 79.3982 100.29 79.3641C100.294 79.3299 100.291 79.2953 100.281 79.2623C100.272 79.2293 100.256 79.1985 100.234 79.1717C100.213 79.1449 100.186 79.1226 100.156 79.106V79.106Z" fill="#7A48FF"/>
<path d="M103.629 71.3751L59.9813 55.811C59.9032 56.0227 59.8152 56.2292 59.7173 56.4307L101.684 76.2129C101.715 76.2279 101.75 76.2363 101.785 76.2376C101.82 76.2389 101.855 76.233 101.888 76.2203C101.921 76.2077 101.951 76.1885 101.976 76.164C102.001 76.1394 102.021 76.11 102.035 76.0776L102.905 73.9829C103.218 73.2281 103.512 72.4704 103.787 71.7097C103.799 71.6773 103.804 71.643 103.803 71.6087C103.801 71.5743 103.792 71.5406 103.778 71.5096C103.763 71.4785 103.742 71.4506 103.717 71.4275C103.691 71.4045 103.662 71.3867 103.629 71.3751Z" fill="#7A48FF"/>
<path d="M49.5689 47.7619C49.755 47.6322 49.9475 47.5117 50.1464 47.4002L27.8365 6.8212C27.8195 6.7904 27.7965 6.76336 27.7688 6.7417C27.7411 6.72005 27.7094 6.70424 27.6754 6.69522C27.6414 6.6862 27.6059 6.68417 27.5712 6.68925C27.5364 6.69432 27.503 6.70639 27.473 6.72474L25.5386 7.90921C24.8421 8.33638 24.1589 8.77693 23.4892 9.23086C23.4608 9.25021 23.4365 9.27499 23.4177 9.30376C23.3989 9.33254 23.3859 9.36474 23.3796 9.39853C23.3732 9.43233 23.3736 9.46704 23.3807 9.50068C23.3878 9.53432 23.4014 9.56624 23.4209 9.59459L49.5689 47.7619Z" fill="#7A48FF"/>
<path d="M48.7355 48.4451C48.8993 48.2881 49.0705 48.1394 49.2493 47.9988L20.9295 11.3491C20.908 11.3212 20.8811 11.2981 20.8504 11.2809C20.8197 11.2638 20.7858 11.2531 20.7508 11.2495C20.7159 11.2458 20.6805 11.2493 20.6469 11.2597C20.6134 11.2701 20.5822 11.2872 20.5554 11.31L18.8274 12.7792C18.2053 13.3089 17.5984 13.8498 17.0069 14.4017C16.9819 14.4253 16.9617 14.4535 16.9475 14.4848C16.9334 14.5162 16.9255 14.55 16.9245 14.5844C16.9234 14.6187 16.9292 14.653 16.9414 14.6851C16.9536 14.7172 16.972 14.7467 16.9956 14.7717L48.7355 48.4451Z" fill="#7A48FF"/>
<path d="M25.0866 31.5781C27.5511 31.7446 29.9107 32.639 31.8664 34.1479C33.8222 35.6568 35.2859 37.7123 36.0723 40.0539L48.007 49.2618C48.144 49.081 48.2896 48.9074 48.4438 48.741L14.7099 16.9916C14.6843 16.9675 14.6541 16.9488 14.621 16.9367C14.588 16.9246 14.5529 16.9194 14.5178 16.9213C14.4827 16.9232 14.4483 16.9321 14.4168 16.9477C14.3852 16.9632 14.3572 16.985 14.3343 17.0117L12.8586 18.7343C12.3275 19.3552 11.8132 19.9847 11.3158 20.6228C11.2947 20.6499 11.2792 20.681 11.2702 20.7142C11.2611 20.7473 11.2587 20.782 11.2631 20.8161C11.2675 20.8502 11.2785 20.8831 11.2956 20.9129C11.3127 20.9427 11.3356 20.9689 11.3628 20.9899L25.0866 31.5781Z" fill="#7A48FF"/>
<path d="M6.84399 27.8944L17.3237 33.6459C18.6696 32.7446 20.1792 32.1158 21.7669 31.7949L9.5328 23.4267C9.50378 23.4069 9.47103 23.3931 9.43654 23.3863C9.40205 23.3795 9.36654 23.3797 9.33214 23.387C9.29775 23.3943 9.26519 23.4085 9.23644 23.4287C9.20769 23.449 9.18334 23.4748 9.16487 23.5047L7.97317 25.4347C7.54439 26.1302 7.1336 26.8316 6.74081 27.5389C6.72419 27.569 6.71367 27.6021 6.70986 27.6363C6.70605 27.6705 6.70902 27.7051 6.71861 27.7381C6.7282 27.7711 6.74421 27.8019 6.76572 27.8287C6.78724 27.8556 6.81384 27.8779 6.84399 27.8944Z" fill="#7A48FF"/>
<path d="M50.5287 47.2005C50.733 47.1025 50.9427 47.0146 51.1579 46.9367L46.1528 32.9111C44.1494 31.4359 42.6323 29.3959 41.7961 27.0527C40.96 24.7095 40.8428 22.1699 41.4597 19.7597L35.5968 3.33029C35.585 3.29718 35.5666 3.26681 35.5427 3.24102C35.5188 3.21522 35.4899 3.19454 35.4578 3.18023C35.4257 3.16592 35.391 3.15827 35.3559 3.15774C35.3207 3.15722 35.2858 3.16383 35.2533 3.17719L33.1549 4.03852C32.3993 4.34934 31.6547 4.67549 30.9213 5.01697C30.8901 5.03155 30.8622 5.05214 30.839 5.07755C30.8159 5.10296 30.7979 5.13269 30.7863 5.16504C30.7746 5.19739 30.7695 5.23172 30.7711 5.26606C30.7728 5.30041 30.7812 5.33409 30.7959 5.36517L50.5287 47.2005Z" fill="#7A48FF"/>
<path d="M52.2877 10.4557L52.0004 0.25274C51.9986 0.210474 51.9864 0.169302 51.9648 0.132934C51.9432 0.0965671 51.9129 0.0661479 51.8766 0.0444201C51.8237 0.0462801 51.7709 0.0487002 51.718 0.0504202C51.7705 0.0486502 51.8232 0.0459404 51.8758 0.0439004C51.8302 0.0131281 51.7759 -0.00199356 51.7211 0.00082054L49.4592 0.17056C48.6444 0.23228 47.8355 0.312024 47.0324 0.40979C46.9983 0.414024 46.9653 0.424952 46.9354 0.441946C46.9055 0.458941 46.8793 0.481669 46.8582 0.508826C46.8371 0.535983 46.8216 0.567036 46.8125 0.600204C46.8035 0.633372 46.801 0.668002 46.8054 0.70211L48.1871 11.5991C49.4778 10.9842 50.8651 10.5974 52.2877 10.4557Z" fill="#7A48FF"/>
<path d="M42.8105 16.5106C43.6294 15.1314 44.7055 13.9223 45.9803 12.9488L43.7876 1.12465C43.7812 1.09008 43.7678 1.05718 43.7483 1.02792C43.7289 0.998668 43.7036 0.973671 43.6742 0.954444C43.6448 0.935216 43.6117 0.922156 43.5771 0.916055C43.5425 0.909954 43.507 0.910937 43.4728 0.918946L41.2643 1.43628C40.4689 1.62321 39.682 1.82704 38.9036 2.04776C38.8706 2.05721 38.8397 2.0731 38.8128 2.09451C38.7859 2.11592 38.7635 2.14243 38.7469 2.17252C38.7302 2.20261 38.7197 2.23569 38.7159 2.26986C38.712 2.30403 38.715 2.33862 38.7246 2.37165L42.8105 16.5106Z" fill="#7A48FF"/>
<path d="M0.29926 52.0415L15.055 52.4461C13.9593 51.2529 13.1067 49.8576 12.5448 48.3382L0.64965 46.839C0.614768 46.8346 0.579357 46.8373 0.54556 46.847C0.511763 46.8567 0.480281 46.8731 0.453019 46.8953C0.425757 46.9175 0.403282 46.945 0.386953 46.9761C0.370625 47.0073 0.360781 47.0414 0.358019 47.0764L0.17983 49.3377C0.11623 50.1523 0.0713198 50.9639 0.0450998 51.7725C0.0440716 51.8069 0.0498354 51.8411 0.0620614 51.8732C0.0742873 51.9054 0.0927345 51.9348 0.116346 51.9598C0.139957 51.9847 0.168269 52.0048 0.199657 52.0189C0.231045 52.0329 0.264893 52.0406 0.29926 52.0415Z" fill="#7A48FF"/>
<path d="M46.6162 53.6938L31.5625 54.1178C29.5325 55.59 27.1055 56.4153 24.5988 56.4859C22.0922 56.5565 19.6226 55.8691 17.5129 54.5135L0.252619 54.9997C0.217475 55.0007 0.182896 55.0088 0.150976 55.0235C0.119056 55.0383 0.0904571 55.0593 0.0669101 55.0854C0.0433631 55.1115 0.0253571 55.1421 0.0139817 55.1754C0.00260627 55.2087 -0.00190219 55.2439 0.000728953 55.279L0.170459 57.5408C0.232199 58.3556 0.311942 59.1645 0.409689 59.9677C0.413923 60.0018 0.424851 60.0347 0.441845 60.0646C0.45884 60.0945 0.481567 60.1208 0.508725 60.1419C0.535882 60.1629 0.566934 60.1785 0.600102 60.1875C0.63327 60.1966 0.667901 60.199 0.702009 60.1947L46.6751 54.3654C46.6449 54.1446 46.6253 53.9208 46.6162 53.6938Z" fill="#7A48FF"/>
<path d="M3.37092 35.6248L12.8311 38.9982C13.4095 37.6865 14.2096 36.4842 15.1961 35.4441L5.3165 30.787C5.2847 30.772 5.25019 30.7636 5.21505 30.7624C5.17992 30.7611 5.14489 30.767 5.11209 30.7796C5.07929 30.7923 5.04939 30.8115 5.02422 30.836C4.99904 30.8605 4.9791 30.8899 4.96561 30.9224L4.09538 33.0171C3.78246 33.7719 3.48823 34.5296 3.21267 35.2903C3.20104 35.3226 3.19591 35.357 3.19757 35.3913C3.19923 35.4257 3.20766 35.4593 3.22236 35.4904C3.23706 35.5215 3.25775 35.5494 3.28324 35.5724C3.30874 35.5955 3.33853 35.6133 3.37092 35.6248Z" fill="#7A48FF"/>
<path d="M47.0328 55.8081L3.33023 71.4035C3.29712 71.4153 3.26675 71.4337 3.24095 71.4576C3.21516 71.4815 3.19448 71.5104 3.18017 71.5425C3.16586 71.5746 3.15821 71.6093 3.15768 71.6445C3.15716 71.6796 3.16377 71.7145 3.17712 71.747L4.03845 73.8454C4.34928 74.601 4.67543 75.3456 5.0169 76.079C5.03149 76.1102 5.05208 76.1381 5.07749 76.1613C5.1029 76.1844 5.13263 76.2024 5.16498 76.214C5.19733 76.2257 5.23166 76.2308 5.266 76.2292C5.30034 76.2275 5.33402 76.2191 5.36511 76.2044L47.2958 56.4267C47.1985 56.2257 47.1108 56.0195 47.0328 55.8081Z" fill="#7A48FF"/>
<path d="M46.7388 54.7539L1.12441 63.2125C1.08984 63.219 1.05693 63.2323 1.02767 63.2518C0.998412 63.2713 0.973413 63.2965 0.954184 63.326C0.934956 63.3554 0.921899 63.3884 0.915803 63.4231C0.909706 63.4577 0.910698 63.4932 0.918717 63.5274L1.43604 65.7359C1.62296 66.5313 1.82679 67.3182 2.04753 68.0965C2.05699 68.1296 2.07287 68.1605 2.09428 68.1874C2.11569 68.2143 2.1422 68.2367 2.17229 68.2533C2.20238 68.2699 2.23546 68.2805 2.26963 68.2843C2.3038 68.2881 2.33838 68.2852 2.37141 68.2756L46.9003 55.4074C46.8362 55.1937 46.7824 54.9759 46.7388 54.7539Z" fill="#7A48FF"/>
<path d="M35.2442 66.007L47.8511 57.3702C47.7231 57.1871 47.6041 56.9978 47.4939 56.8022L7.05988 79.0325C6.99827 79.0664 6.94416 79.1124 6.90084 79.1678C6.85752 79.2232 6.82588 79.2868 6.80785 79.3547C6.78982 79.4227 6.78576 79.4936 6.79593 79.5632C6.80609 79.6328 6.83026 79.6996 6.86699 79.7595L7.90923 81.4616C8.33641 82.1582 8.77695 82.8413 9.23087 83.511C9.25022 83.5394 9.275 83.5637 9.30377 83.5826C9.33255 83.6014 9.36475 83.6143 9.39854 83.6207C9.43233 83.627 9.46705 83.6266 9.50069 83.6196C9.53433 83.6125 9.56624 83.5988 9.59459 83.5794L23.9426 73.7496C24.8653 71.497 26.427 69.5636 28.4352 68.1877C30.4434 66.8119 32.8104 66.0539 35.2442 66.007V66.007Z" fill="#7A48FF"/>
<path d="M1.16418 43.8353L11.907 45.8192C11.6996 44.399 11.7385 42.9538 12.0219 41.5469L2.31456 38.7494C2.28078 38.7397 2.24537 38.7369 2.21049 38.7412C2.1756 38.7456 2.14195 38.757 2.11159 38.7747C2.08122 38.7924 2.05476 38.8161 2.03382 38.8443C2.01287 38.8726 1.99787 38.9048 1.98972 38.939L1.46414 41.1455C1.27538 41.9405 1.10556 42.7354 0.954663 43.5302C0.948332 43.564 0.948733 43.5988 0.955843 43.6324C0.962953 43.666 0.976633 43.6979 0.996098 43.7263C1.01556 43.7546 1.04043 43.7788 1.06927 43.7975C1.09812 43.8162 1.13037 43.8291 1.16418 43.8353Z" fill="#7A48FF"/>
<path d="M131.668 9.32227H147.414V12.5903H135.642V20.9829H145.594V24.2509H135.642V35.8374H131.668V9.32227Z" fill="#7A48FF"/>
<path d="M152.205 9.13672H155.993V13.4444H152.205V9.13672ZM152.205 16.9723H155.993V35.8374H152.205V16.9723Z" fill="#7A48FF"/>
<path d="M165.945 9.32227V29.1528C165.945 31.9009 166.688 32.7551 169.176 32.7551H169.993V35.8374H169.028C163.531 35.8374 162.158 34.4261 162.158 28.7816V9.32227H165.945Z" fill="#7A48FF"/>
<path d="M173.113 16.9721H176.01L176.307 18.8289C176.829 18.0674 177.544 17.4593 178.38 17.0675C179.216 16.6757 180.141 16.5146 181.06 16.6007C182.114 16.5146 183.171 16.7267 184.11 17.2126C185.049 17.6986 185.832 18.4388 186.371 19.3488C187.448 17.4549 189.119 16.6007 191.755 16.6007C194.949 16.6007 196.954 17.7891 197.808 20.2401C198.236 21.799 198.411 23.4163 198.328 25.0306V35.8372H194.541V25.402C194.541 21.4285 193.575 19.8316 191.161 19.8316C188.636 19.8316 187.633 21.6141 187.633 26.0333V35.8372H183.846V25.4391C183.846 21.3914 182.917 19.8316 180.466 19.8316C177.904 19.8316 176.901 21.577 176.901 26.1448V35.8372H173.113V16.9721Z" fill="#7A48FF"/>
<path d="M221.28 23.5456C221.28 20.7975 220.204 19.6462 217.604 19.6462C216.813 19.628 216.028 19.789 215.308 20.117C214.587 20.4449 213.951 20.9315 213.445 21.5403L210.845 19.6091C212.517 17.5667 214.782 16.6011 217.975 16.6011C221.132 16.6011 223.286 17.6038 224.326 19.5721C224.883 20.6119 225.068 21.8373 225.068 24.1769V35.8376H222.06L221.8 34.6121C220.612 35.8005 219.238 36.209 216.49 36.209C211.737 36.209 209.991 34.6863 209.991 30.4528C209.991 26.1079 211.773 24.6225 217.121 24.6225H221.28L221.28 23.5456ZM217.53 27.2962C214.671 27.2962 213.593 28.1504 213.593 30.3786C213.593 32.5324 214.559 33.2379 217.418 33.2379C219.201 33.2379 220.24 32.9038 220.835 32.1239C221.238 31.4011 221.394 30.5668 221.28 29.7472V27.2962L217.53 27.2962Z" fill="#7A48FF"/>
<path d="M228.374 20.0173V16.9722H230.565L230.751 11.2163H234.353V16.9722H238.067V20.0173H234.353V29.1527C234.353 31.9008 235.096 32.7921 237.547 32.7178H238.141V35.8373H237.473C231.828 35.8373 230.565 34.5375 230.565 28.7816V20.0173H228.374Z" fill="#7A48FF"/>
<path d="M131.631 40.1494H135.605V63.3967H147.637V66.6645H131.631V40.1494Z" fill="#7A48FF"/>
<path d="M152.168 39.9639H155.956V44.2715H152.168V39.9639ZM152.168 47.7995H155.956V66.6645H152.168V47.7995Z" fill="#7A48FF"/>
<path d="M162.158 47.7991H165.055L165.352 49.693C166.54 48.0962 168.026 47.4277 170.514 47.4277C173.819 47.4277 175.935 48.6534 176.827 51.0671C177.271 52.6232 177.459 54.2412 177.384 55.8576V66.6642H173.596V56.2663C173.596 52.2555 172.556 50.6587 169.882 50.6587C167.023 50.6587 165.946 52.404 165.946 57.0091V66.6642H162.158L162.158 47.7991Z" fill="#7A48FF"/>
<path d="M196.659 63.7676C195.173 65.996 192.982 67.0358 189.825 67.0358C184.626 67.0358 182.101 64.1021 182.101 58.086V56.7121C182.101 50.3987 184.515 47.4277 189.714 47.4277C192.87 47.4277 194.987 48.5046 196.287 50.7701L193.464 52.3669C193.117 51.7577 192.605 51.2576 191.989 50.923C191.372 50.5883 190.674 50.4325 189.974 50.4729C187.188 50.4729 185.889 52.3296 185.889 56.4146V58.4572C185.889 62.0966 187.3 63.9905 190.048 63.9905C190.786 64.0375 191.524 63.891 192.188 63.5653C192.853 63.2397 193.421 62.7462 193.836 62.1337L196.659 63.7676Z" fill="#7A48FF"/>
<path d="M199.37 55.7835C199.37 49.9902 201.821 47.4277 207.354 47.4277C212.85 47.4277 215.301 49.9902 215.301 55.7835V58.6801C215.301 64.4733 212.85 67.0358 207.354 67.0358C201.821 67.0358 199.37 64.4733 199.37 58.6801V55.7835ZM211.513 56.0435C211.513 52.1812 210.25 50.4729 207.317 50.4729C204.421 50.4729 203.157 52.1812 203.157 56.0435V58.4202C203.157 62.2824 204.421 63.9905 207.317 63.9905C210.25 63.9905 211.513 62.2824 211.513 58.4202V56.0435Z" fill="#7A48FF"/>
<path d="M224.066 40.1494V59.9801C224.066 62.728 224.809 63.5825 227.297 63.5825H228.114V66.6645H227.149C221.652 66.6645 220.278 65.2535 220.278 59.609V40.1494H224.066Z" fill="#7A48FF"/>
<path d="M231.494 47.7991H234.391L234.687 49.693C235.876 48.0962 237.361 47.4277 239.849 47.4277C243.154 47.4277 245.271 48.6534 246.163 51.0671C246.606 52.6233 246.794 54.2412 246.72 55.8576V66.6642H242.932V56.2663C242.932 52.2555 241.892 50.6587 239.218 50.6587C236.359 50.6587 235.281 52.404 235.281 57.0091V66.6642H231.494V47.7991Z" fill="#7A48FF"/>
<path d="M149.085 90.9184C148.825 95.4864 145.706 97.8631 140.135 97.8631C136.608 97.8631 134.231 96.7862 132.634 94.5578C131.446 92.8498 131 90.7701 131 87.0195V81.4862C131 77.4381 131.557 75.2472 133.042 73.5017C134.639 71.5707 136.867 70.6797 140.135 70.6797C145.557 70.6797 148.528 73.1305 148.788 77.7352L145.112 78.0327C144.777 75.3214 143.106 73.9104 140.247 73.9104C136.422 73.9104 134.974 76.0642 134.974 81.7462V86.7966C134.974 92.5153 136.422 94.632 140.247 94.632C143.255 94.632 145 93.221 145.371 90.5102L149.085 90.9184Z" fill="#7A48FF"/>
<path d="M156.29 89.6184C156.29 93.0349 157.924 94.8546 160.969 94.8546C161.756 94.9207 162.546 94.7808 163.263 94.4487C163.979 94.1167 164.597 93.6039 165.055 92.9608L167.877 94.6318C166.317 96.9343 164.201 97.8629 160.598 97.8629C154.99 97.8629 152.502 95.1146 152.502 88.9131V87.4646C152.502 81.0032 154.842 78.2549 160.375 78.2549C165.909 78.2549 168.248 81.0032 168.248 87.4646V88.9502H156.29V89.6184ZM164.646 86.2394V85.8678C164.646 82.8228 163.197 81.1889 160.487 81.1889C159.812 81.1077 159.127 81.222 158.515 81.5182C157.903 81.8144 157.389 82.2801 157.033 82.8599C156.535 83.797 156.28 84.8438 156.29 85.9049V86.2394L164.646 86.2394Z" fill="#7A48FF"/>
<path d="M173.002 78.6265H175.899L176.196 80.5203C177.384 78.9235 178.87 78.2549 181.358 78.2549C184.663 78.2549 186.78 79.4805 187.671 81.8943C188.115 83.4503 188.303 85.0683 188.228 86.6848V97.4913H184.44V87.0934C184.44 83.0828 183.401 81.486 180.727 81.486C177.867 81.486 176.79 83.2311 176.79 87.8362V97.4913H173.002V78.6265Z" fill="#7A48FF"/>
<path d="M192.648 81.6712V78.6263H194.839L195.025 72.8701H198.627V78.6263H202.341V81.6712H198.627V90.8068C198.627 93.5547 199.37 94.4462 201.821 94.3716H202.415V97.4911H201.746C196.102 97.4911 194.839 96.1913 194.839 90.4356V81.6712H192.648Z" fill="#7A48FF"/>
<path d="M209.991 89.6184C209.991 93.0349 211.625 94.8546 214.67 94.8546C215.457 94.9208 216.247 94.7809 216.963 94.4488C217.68 94.1168 218.297 93.6039 218.755 92.9608L221.578 94.6318C220.018 96.9343 217.901 97.8629 214.299 97.8629C208.692 97.8629 206.203 95.1146 206.203 88.9131V87.4646C206.203 81.0032 208.543 78.2549 214.076 78.2549C219.609 78.2549 221.949 81.0032 221.949 87.4646V88.9502H209.991V89.6184ZM218.347 86.2394V85.8678C218.347 82.8228 216.899 81.1889 214.187 81.1889C213.512 81.1078 212.828 81.2222 212.216 81.5184C211.604 81.8146 211.089 82.2802 210.734 82.8599C210.236 83.7971 209.981 84.8438 209.991 85.9049V86.2394L218.347 86.2394Z" fill="#7A48FF"/>
<path d="M226.629 78.6266H229.562L229.971 80.2234C230.449 79.5601 231.089 79.0307 231.831 78.6861C232.572 78.3414 233.389 78.1929 234.204 78.255C235.555 78.2498 236.88 78.6229 238.029 79.3319L236.395 82.4885C235.68 81.8779 234.774 81.5364 233.833 81.5232C231.419 81.5232 230.416 83.5283 230.416 88.3192V97.4915H226.629V78.6266Z" fill="#7A48FF"/>
</svg>
