<svg id="Layer_1" data-name="Layer 1" xmlns="http://www.w3.org/2000/svg" width="247.1226" height="107" viewBox="0 0 247.1226 107">
  <defs>
    <style>
      .cls-1 {
        fill: #7a48ff;
      }
    </style>
  </defs>
  <title>flc_mark_filmlinc_purple2</title>
  <g>
    <path class="cls-1" d="M53.21156,58.84272q.05783-.336.1473-.66025L42.41367,55.02828a12.408,12.408,0,0,1-.78216,1.676Z" transform="translate(-6.5 -6.59642)"/>
    <path class="cls-1" d="M68.12894,77.33034,62.91482,66.2759q-.30219.14066-.61951.25237L66.862,79.32543A12.47561,12.47561,0,0,1,68.12894,77.33034Z" transform="translate(-6.5 -6.59642)"/>
    <path class="cls-1" d="M64.69611,65.07848q-.24571.22785-.51284.43153l6.97442,9.02587a12.4457,12.4457,0,0,1,1.61171-.89229Z" transform="translate(-6.5 -6.59642)"/>
    <path class="cls-1" d="M46.02457,73.26934l8.99935-8.48258q-.23159-.24207-.43921-.50589L43.67154,72.71362A12.38735,12.38735,0,0,1,46.02457,73.26934Z" transform="translate(-6.5 -6.59642)"/>
    <path class="cls-1" d="M101.74435,50.61528a12.56619,12.56619,0,0,1-.12644,1.76355l10.75778-1.99491a.25994.25994,0,0,0,.20569-.31487l-.51732-2.20846q-.2804-1.19312-.61149-2.36066a.26127.26127,0,0,0-.32388-.17907l-9.637,2.785A12.52771,12.52771,0,0,1,101.74435,50.61528Z" transform="translate(-6.5 -6.59642)"/>
    <path class="cls-1" d="M55.82662,65.50569q-.26638-.20337-.5117-.43137l-8.1434,8.65238a12.44409,12.44409,0,0,1,1.62238.89431Z" transform="translate(-6.5 -6.59642)"/>
    <path class="cls-1" d="M65.42806,64.28419q-.20795.264-.4403.50645L73.908,73.18616a12.38421,12.38421,0,0,1,2.33209-.56021Z" transform="translate(-6.5 -6.59642)"/>
    <path class="cls-1" d="M63.932,54.34788,90.07359,16.1291a.25994.25994,0,0,0-.078-.36794l-1.93-1.19168q-1.04331-.64317-2.10425-1.23236a.26126.26126,0,0,0-.35543.10316L63.35289,53.98722Q63.652,54.15342,63.932,54.34788Z" transform="translate(-6.5 -6.59642)"/>
    <path class="cls-1" d="M72.51355,29.46107A12.45253,12.45253,0,0,1,67.3116,39.59193L62.3423,53.5278q.32286.11613.63029.26261L82.71307,11.91277a.25993.25993,0,0,0-.13541-.35087L80.483,10.69167q-1.13216-.4694-2.27319-.88271a.26128.26128,0,0,0-.33455.15826l-5.7922,16.24364A12.48111,12.48111,0,0,1,72.51355,29.46107Z" transform="translate(-6.5 -6.59642)"/>
    <path class="cls-1" d="M70.69715,22.97708,74.75076,8.91087a.25992.25992,0,0,0-.18954-.32484l-2.20651-.52558Q71.16223,7.77731,69.97,7.551a.26128.26128,0,0,0-.30507.20953l-2.16173,11.706A12.53737,12.53737,0,0,1,70.69715,22.97708Z" transform="translate(-6.5 -6.59642)"/>
    <path class="cls-1" d="M100.68207,45.57887l9.48782-3.38575a.25994.25994,0,0,0,.15311-.34353l-.86133-2.09834q-.46623-1.13347-.97846-2.23366a.26124.26124,0,0,0-.3482-.12538l-9.82444,4.634A12.48511,12.48511,0,0,1,100.68207,45.57887Z" transform="translate(-6.5 -6.59642)"/>
    <path class="cls-1" d="M96.1579,40.21714,106.679,34.43277a.25994.25994,0,0,0,.09645-.36352l-1.18447-1.93442q-.64078-1.04476-1.32165-2.04936a.26127.26127,0,0,0-.36373-.06833L91.69726,38.38092A12.39814,12.39814,0,0,1,96.1579,40.21714Z" transform="translate(-6.5 -6.59642)"/>
    <path class="cls-1" d="M64.76809,55.03032,96.50841,21.30618a.25994.25994,0,0,0-.02016-.37556l-1.72258-1.4757q-.93135-.79668-1.88849-1.54282a.26126.26126,0,0,0-.36708.047L64.25253,54.58459Q64.52135,54.79483,64.76809,55.03032Z" transform="translate(-6.5 -6.59642)"/>
    <path class="cls-1" d="M65.49947,55.84688l11.9651-9.24558A12.47565,12.47565,0,0,1,88.363,38.18l13.788-10.65417a.25994.25994,0,0,0,.03911-.37405l-1.46926-1.72808q-.79455-.93318-1.62253-1.82044a.26127.26127,0,0,0-.36993-.01129L65.06084,55.32618Q65.29255,55.57554,65.49947,55.84688Z" transform="translate(-6.5 -6.59642)"/>
    <path class="cls-1" d="M57.708,66.5242q-.31668-.112-.61852-.25331L51.83381,77.42031A12.47525,12.47525,0,0,1,53.10744,79.426Z" transform="translate(-6.5 -6.59642)"/>
    <path class="cls-1" d="M66.27434,57.13693q.14162.30726.25323.63007L77.2522,53.93988a12.40992,12.40992,0,0,1-.35712-1.81252Z" transform="translate(-6.5 -6.59642)"/>
    <path class="cls-1" d="M77.59949,55.01035,66.654,58.17346q.09.32465.14847.66147l11.577-2.14682A12.40775,12.40775,0,0,1,77.59949,55.01035Z" transform="translate(-6.5 -6.59642)"/>
    <path class="cls-1" d="M56.1433,65.7349l-6.49562,9.49655a12.54068,12.54068,0,0,1,1.36656,1.23783l5.70029-10.3864Q56.41995,65.92253,56.1433,65.7349Z" transform="translate(-6.5 -6.59642)"/>
    <path class="cls-1" d="M41.00847,57.70261a12.53184,12.53184,0,0,1-1.54556,1.8306l13.64936.37428q.00547-.34119.04308-.67387Z" transform="translate(-6.5 -6.59642)"/>
    <path class="cls-1" d="M53.48565,57.77342q.11094-.32205.252-.629L43.12344,52.141a12.41011,12.41011,0,0,1-.35845,1.80964Z" transform="translate(-6.5 -6.59642)"/>
    <path class="cls-1" d="M98.4938,59.0122l14.75369-.41554a.25992.25992,0,0,0,.25188-.27929l-.16972-2.26189q-.09261-1.22211-.23924-2.4268a.26127.26127,0,0,0-.29231-.227l-11.809,1.49736A12.46831,12.46831,0,0,1,98.4938,59.0122Z" transform="translate(-6.5 -6.59642)"/>
    <path class="cls-1" d="M79.00075,57.68712,66.85914,59.22664q.03819.33312.04383.6753l13.63821-.38412A12.53292,12.53292,0,0,1,79.00075,57.68712Z" transform="translate(-6.5 -6.59642)"/>
    <path class="cls-1" d="M63.866,65.73925q-.27692.1872-.57234.34765l5.657,10.28939a12.53951,12.53951,0,0,1,1.35863-1.232Z" transform="translate(-6.5 -6.59642)"/>
    <path class="cls-1" d="M58.06521,53.401q.32558-.0954.66381-.159L56.53874,41.4307a12.38352,12.38352,0,0,1-2.18457-.87124Z" transform="translate(-6.5 -6.59642)"/>
    <path class="cls-1" d="M65.28756,18.14618,66.66145,7.246a.25994.25994,0,0,0-.23748-.29164l-2.26123-.17818q-1.22192-.0954-2.43486-.13473a.26126.26126,0,0,0-.269.25416l-.27825,10.14765A12.389,12.389,0,0,1,65.28756,18.14618Z" transform="translate(-6.5 -6.59642)"/>
    <path class="cls-1" d="M43.21966,50.61528c0,.08984-.00488.17849-.00677.26789l10.71329,5.87969q.161-.3.34986-.58174L43.03615,48.49306A12.53842,12.53842,0,0,1,43.21966,50.61528Z" transform="translate(-6.5 -6.59642)"/>
    <path class="cls-1" d="M59.12311,53.18022q.33564-.043.68067-.05324l-.31567-11.208a12.49283,12.49283,0,0,1-1.82009-.21442Z" transform="translate(-6.5 -6.59642)"/>
    <path class="cls-1" d="M63.44163,41.45994,61.26649,53.2385q.3384.06243.6646.15713l3.682-12.77671A12.38266,12.38266,0,0,1,63.44163,41.45994Z" transform="translate(-6.5 -6.59642)"/>
    <path class="cls-1" d="M76.99065,48.45627,65.73191,56.16953q.18972.2815.3516.58221l10.72316-5.89549c-.00153-.08046-.00609-.16016-.00609-.241A12.53568,12.53568,0,0,1,76.99065,48.45627Z" transform="translate(-6.5 -6.59642)"/>
    <path class="cls-1" d="M60.19118,53.12646q.345.009.68094.05121L62.316,41.7223a12.50625,12.50625,0,0,1-1.81755.19912Z" transform="translate(-6.5 -6.59642)"/>
    <path class="cls-1" d="M58.11083,66.6521,53.88382,81.32a12.47851,12.47851,0,0,1-3.8171,13.24544l-4.81736,16.71643a.25993.25993,0,0,0,.18954.32484l2.20651.52558q1.19247.28311,2.38476.50947a.26127.26127,0,0,0,.30507-.20951l8.42614-45.62832Q58.43027,66.74344,58.11083,66.6521Z" transform="translate(-6.5 -6.59642)"/>
    <path class="cls-1" d="M77.61277,97.437a12.41217,12.41217,0,0,1-4.66229-1.05l4.95281,13.87917a.26.26,0,0,0,.34353.1531l2.09835-.86134q1.13348-.46623,2.23366-.97845a.26125.26125,0,0,0,.12538-.34819Z" transform="translate(-6.5 -6.59642)"/>
    <path class="cls-1" d="M69.9452,94.51021a12.47573,12.47573,0,0,1-3.85-13.32225L61.89534,66.65471q-.31959.09075-.65112.151L69.71248,112.472a.25994.25994,0,0,0,.31487.20569l2.20848-.51732q1.1931-.28042,2.36066-.61149a.26126.26126,0,0,0,.17906-.32388Z" transform="translate(-6.5 -6.59642)"/>
    <path class="cls-1" d="M59.14718,66.863l-5.8085,46.08373a.25994.25994,0,0,0,.23747.29165l2.26125.17819q1.22188.0954,2.43484.13472a.26126.26126,0,0,0,.269-.25415l1.27188-46.38372Q59.47581,66.90407,59.14718,66.863Z" transform="translate(-6.5 -6.59642)"/>
    <path class="cls-1" d="M60.19207,66.91369l1.30768,46.4301a.25994.25994,0,0,0,.2793.25188l2.26188-.16974q1.22213-.09258,2.42681-.23922a.26125.26125,0,0,0,.227-.29231L60.85823,66.86428Q60.52963,66.90472,60.19207,66.91369Z" transform="translate(-6.5 -6.59642)"/>
    <path class="cls-1" d="M30.978,90.93239,23.4917,98.88654a.25993.25993,0,0,0,.02019.37555l1.72256,1.47569q.93137.79671,1.88848,1.54282a.26126.26126,0,0,0,.36709-.047l6.11633-7.92758A12.51929,12.51929,0,0,1,30.978,90.93239Z" transform="translate(-6.5 -6.59642)"/>
    <path class="cls-1" d="M42.35364,97.53161l-5.06659,10.74832a.25994.25994,0,0,0,.13541.35088l2.09466.87022q1.13217.46941,2.27321.88271a.26125.26125,0,0,0,.33454-.15826L47.02755,96.4764A12.41146,12.41146,0,0,1,42.35364,97.53161Z" transform="translate(-6.5 -6.59642)"/>
    <path class="cls-1" d="M35.59373,95.77819l-5.66721,8.28542a.25994.25994,0,0,0,.078.36793l1.93,1.1917q1.04331.64314,2.10427,1.23235a.26126.26126,0,0,0,.35541-.10315l5.18421-9.44606A12.38968,12.38968,0,0,1,35.59373,95.77819Z" transform="translate(-6.5 -6.59642)"/>
    <path class="cls-1" d="M88.98417,90.84618a12.52,12.52,0,0,1-2.62341,3.36463l6.20986,8.03643a.25992.25992,0,0,0,.374.03909l1.72808-1.46924q.93315-.79458,1.82042-1.62255a.26125.26125,0,0,0,.01131-.36991Z" transform="translate(-6.5 -6.59642)"/>
    <path class="cls-1" d="M112.33593,69.76118,66.777,61.34784q-.06506.33353-.16163.65491l44.57022,12.84431a.25992.25992,0,0,0,.32484-.18954L112.036,72.451q.28312-1.19245.50947-2.38475A.26125.26125,0,0,0,112.33593,69.76118Z" transform="translate(-6.5 -6.59642)"/>
    <path class="cls-1" d="M58.40567,6.63951l0-.00064-.02989.00124.00085.0005Z" transform="translate(-6.5 -6.59642)"/>
    <path class="cls-1" d="M113.20085,61.55516l-17.15431-.47038a12.46091,12.46091,0,0,1-14.11192-.387l-15.03537-.41229q-.01293.34107-.05854.673l46.00974,5.79918a.25993.25993,0,0,0,.29164-.23748l.17819-2.26124q.0954-1.22189.13472-2.43484A.26125.26125,0,0,0,113.20085,61.55516Z" transform="translate(-6.5 -6.59642)"/>
    <path class="cls-1" d="M90.36541,83.524a12.37478,12.37478,0,0,1-.37238,4.801l8.79721,8.27971a.26.26,0,0,0,.37556-.02018l1.4757-1.72256q.79668-.93136,1.54282-1.88849a.26127.26127,0,0,0-.047-.36709Z" transform="translate(-6.5 -6.59642)"/>
    <path class="cls-1" d="M29.51436,85.069a12.57953,12.57953,0,0,1,.09123-1.48643L17.84918,92.6669a.26.26,0,0,0-.03911.37407L19.27933,94.769q.79455.93316,1.62253,1.82043a.26127.26127,0,0,0,.36993.0113l8.69693-8.19754A12.47455,12.47455,0,0,1,29.51436,85.069Z" transform="translate(-6.5 -6.59642)"/>
    <path class="cls-1" d="M84.37829,95.68034a12.39005,12.39005,0,0,1-3.97413,1.52853l5.25949,9.56637a.25992.25992,0,0,0,.36351.09645l1.93443-1.18448q1.04477-.64075,2.04934-1.32163a.26127.26127,0,0,0,.06835-.36373Z" transform="translate(-6.5 -6.59642)"/>
    <path class="cls-1" d="M106.65614,85.70226,66.02035,63.40042q-.16548.29369-.35814.56883l12.48156,8.53738A12.47194,12.47194,0,0,1,89.545,80.30505l14.42231,9.86484a.25994.25994,0,0,0,.36793-.078l1.19169-1.93q.64317-1.04331,1.23236-2.10427A.26125.26125,0,0,0,106.65614,85.70226Z" transform="translate(-6.5 -6.59642)"/>
    <path class="cls-1" d="M110.12918,77.97155,66.48127,62.40744q-.11713.31747-.26391.61965l41.96627,19.78226a.25993.25993,0,0,0,.35089-.13539l.87023-2.09467q.46939-1.13217.88271-2.2732A.26126.26126,0,0,0,110.12918,77.97155Z" transform="translate(-6.5 -6.59642)"/>
    <path class="cls-1" d="M56.06889,54.35818q.27912-.19453.57752-.36172l-22.30992-40.579A.26.26,0,0,0,33.973,13.321l-1.9344,1.18447q-1.0448.64076-2.04936,1.32165a.26126.26126,0,0,0-.06835.36373Z" transform="translate(-6.5 -6.59642)"/>
    <path class="cls-1" d="M55.23552,55.04155q.24565-.23551.51377-.4463L27.42952,17.94547a.25993.25993,0,0,0-.37407-.0391l-1.72809,1.46926q-.93315.79455-1.82042,1.62253a.26127.26127,0,0,0-.0113.36991Z" transform="translate(-6.5 -6.59642)"/>
    <path class="cls-1" d="M31.58658,38.17458a12.47556,12.47556,0,0,1,10.98569,8.47576L54.507,55.85826q.20556-.27128.43682-.52077L21.20988,23.588a.25993.25993,0,0,0-.37555.02017l-1.4757,1.72258q-.7967.93134-1.54281,1.88847a.26125.26125,0,0,0,.047.3671Z" transform="translate(-6.5 -6.59642)"/>
    <path class="cls-1" d="M13.344,34.49046,23.82367,40.242a12.40056,12.40056,0,0,1,4.44325-1.851L16.0328,30.02281a.25992.25992,0,0,0-.36792.078l-1.1917,1.93Q13.83,33.07406,13.24082,34.135A.26128.26128,0,0,0,13.344,34.49046Z" transform="translate(-6.5 -6.59642)"/>
    <path class="cls-1" d="M57.0287,53.79677q.30649-.147.62919-.26383L52.65283,39.50736A12.48714,12.48714,0,0,1,47.9597,26.35593L42.09682,9.92653a.25992.25992,0,0,0-.34351-.15311l-2.09836.86133q-1.13348.46623-2.23366.97845a.26127.26127,0,0,0-.12538.34821Z" transform="translate(-6.5 -6.59642)"/>
    <path class="cls-1" d="M58.78773,17.052l-.28737-10.203a.2549.2549,0,0,0-.12376-.20832c-.0529.00186-.10566.00428-.15857.006.05249-.00177.10519-.00448.15772-.00652a.253.253,0,0,0-.15467-.04308l-2.2619.16974q-1.22211.09258-2.4268.23923a.26127.26127,0,0,0-.227.29232l1.38171,10.897A12.38858,12.38858,0,0,1,58.78773,17.052Z" transform="translate(-6.5 -6.59642)"/>
    <path class="cls-1" d="M49.31054,23.10669a12.53217,12.53217,0,0,1,3.16974-3.56178L50.28763,7.72073a.26.26,0,0,0-.31486-.2057l-2.20848.51733q-1.19312.2804-2.36064.61148a.26127.26127,0,0,0-.17909.32389Z" transform="translate(-6.5 -6.59642)"/>
    <path class="cls-1" d="M6.79927,58.63754l14.75574.40462a12.46877,12.46877,0,0,1-2.51023-4.1079L7.14966,53.435a.25994.25994,0,0,0-.29163.23748l-.17819,2.26123q-.0954,1.22191-.13473,2.43484A.26127.26127,0,0,0,6.79927,58.63754Z" transform="translate(-6.5 -6.59642)"/>
    <path class="cls-1" d="M53.11626,60.29023l-15.0537.424a12.45972,12.45972,0,0,1-14.04965.3957l-17.26028.48613a.25994.25994,0,0,0-.25189.27929l.16973,2.26188q.09261,1.22211.23923,2.42682a.26127.26127,0,0,0,.29232.227l45.97306-5.82927Q53.12987,60.63065,53.11626,60.29023Z" transform="translate(-6.5 -6.59642)"/>
    <path class="cls-1" d="M9.87094,42.22115l9.46017,3.37334a12.48423,12.48423,0,0,1,2.365-3.55405l-9.87959-4.65709a.25994.25994,0,0,0-.35089.13539l-.87023,2.09468q-.46938,1.13217-.88271,2.2732A.26126.26126,0,0,0,9.87094,42.22115Z" transform="translate(-6.5 -6.59642)"/>
    <path class="cls-1" d="M53.53285,62.40419,9.83023,77.99959a.25994.25994,0,0,0-.15311.34352l.86133,2.09834q.46625,1.13348.97845,2.23368a.26129.26129,0,0,0,.34821.12538l41.9307-19.77775Q53.64983,62.72132,53.53285,62.40419Z" transform="translate(-6.5 -6.59642)"/>
    <path class="cls-1" d="M53.23883,61.35014,7.62443,69.80878a.25994.25994,0,0,0-.20569.31487l.51732,2.20846q.28039,1.19312.61149,2.36066a.26126.26126,0,0,0,.32388.17907L53.4003,62.00359Q53.3042,61.68309,53.23883,61.35014Z" transform="translate(-6.5 -6.59642)"/>
    <path class="cls-1" d="M41.74424,72.60324l12.60688-8.63685q-.19194-.27456-.35721-.56792l-40.434,22.23024a.51987.51987,0,0,0-.1929.72705l1.04224,1.70211q.64077,1.0448,1.32164,2.04936a.26127.26127,0,0,0,.36373.06835l14.34805-9.82972A12.47222,12.47222,0,0,1,41.74424,72.60324Z" transform="translate(-6.5 -6.59642)"/>
    <path class="cls-1" d="M7.66419,50.43152,18.407,52.41538a12.49411,12.49411,0,0,1,.11489-4.27227L8.81457,45.34564a.25994.25994,0,0,0-.32484.18954l-.52558,2.20653q-.28314,1.19245-.50948,2.38476A.26125.26125,0,0,0,7.66419,50.43152Z" transform="translate(-6.5 -6.59642)"/>
  </g>
  <g>
    <path class="cls-1" d="M138.57141,15.91891h15.74577v3.268H142.54493v8.39259h9.95254v3.268h-9.95254V42.434h-3.97352Z" transform="translate(-6.5 -6.59642)"/>
    <path class="cls-1" d="M159.10806,15.73331h3.78772V20.041h-3.78772Zm0,7.8356h3.78772V42.434h-3.78772Z" transform="translate(-6.5 -6.59642)"/>
    <path class="cls-1" d="M172.84832,15.91891V35.74943c0,2.7481.7432,3.60233,3.23114,3.60233h.81695V42.434h-.96527c-5.49659,0-6.87054-1.41123-6.87054-7.05573V15.91891Z" transform="translate(-6.5 -6.59642)"/>
    <path class="cls-1" d="M180.0163,23.56891h2.89662l.297,1.85679a5.17638,5.17638,0,0,1,4.7534-2.22818,5.63681,5.63681,0,0,1,5.31038,2.74809c1.07691-1.89386,2.7483-2.74809,5.38455-2.74809,3.19365,0,5.19915,1.18834,6.05318,3.6394a15.161,15.161,0,0,1,.51991,4.79047V42.434h-3.78772V31.99879c0-3.97352-.96567-5.57034-3.37944-5.57034-2.52542,0-3.52777,1.78242-3.52777,6.2017V42.434h-3.78772V32.03587c0-4.04768-.92859-5.60742-3.37945-5.60742-2.56249,0-3.56524,1.74534-3.56524,6.31314V42.434H180.0163Z" transform="translate(-6.5 -6.59642)"/>
    <path class="cls-1" d="M228.18343,30.142c0-2.74809-1.0765-3.89936-3.67608-3.89936a5.25071,5.25071,0,0,0-4.15932,1.89406l-2.59958-1.93114c1.67139-2.04238,3.93645-3.00805,7.13009-3.00805,3.15657,0,5.31039,1.00275,6.35022,2.971.557,1.03983.7428,2.26526.7428,4.60487V42.434H228.9633l-.26-1.22543c-1.18814,1.18835-2.56209,1.59683-5.31,1.59683-4.75339,0-6.49894-1.52267-6.49894-5.75615,0-4.34492,1.78222-5.8303,7.13009-5.8303h4.15892Zm-3.75024,3.75064c-2.85953,0-3.93685.85424-3.93685,3.08241,0,2.15382.96568,2.85933,3.82521,2.85933,1.78222,0,2.822-.33411,3.41653-1.114a3.80943,3.80943,0,0,0,.44535-2.3767V33.89265Z" transform="translate(-6.5 -6.59642)"/>
    <path class="cls-1" d="M235.27725,26.614V23.56891h2.19131l.1858-5.75594h3.60192v5.75594h3.71356V26.614h-3.71356v9.13539c0,2.7481.74279,3.63941,3.19365,3.56505h.59407V42.434h-.66823c-5.6445,0-6.90721-1.29979-6.90721-7.05573V26.614Z" transform="translate(-6.5 -6.59642)"/>
    <path class="cls-1" d="M138.53433,46.74588h3.97352V69.99314h12.0318v3.2678H138.53433Z" transform="translate(-6.5 -6.59642)"/>
    <path class="cls-1" d="M159.07138,46.56029h3.78773v4.30763h-3.78773Zm0,7.8356h3.78773V73.26094h-3.78773Z" transform="translate(-6.5 -6.59642)"/>
    <path class="cls-1" d="M169.06142,54.39589h2.8962l.29744,1.89386c1.18815-1.59683,2.67374-2.26526,5.16167-2.26526,3.30529,0,5.42162,1.22563,6.31314,3.63941a14.9331,14.9331,0,0,1,.557,4.79047V73.26094h-3.78813V62.86305c0-4.0108-1.03942-5.60763-3.71356-5.60763-2.85913,0-3.936,1.74534-3.936,6.35042v9.6551h-3.78772Z" transform="translate(-6.5 -6.59642)"/>
    <path class="cls-1" d="M203.56162,70.36433c-1.48559,2.22839-3.6769,3.26822-6.83306,3.26822-5.19915,0-7.72457-2.9337-7.72457-8.9498V63.30881c0-6.31335,2.41378-9.28432,7.61293-9.28432,3.15657,0,5.27331,1.07691,6.57309,3.34237l-2.82245,1.59683a3.76974,3.76974,0,0,0-3.49068-1.89407c-2.78538,0-4.08517,1.85678-4.08517,5.94174V65.054c0,3.6394,1.41143,5.53326,4.15932,5.53326a4.24921,4.24921,0,0,0,3.78772-1.85678Z" transform="translate(-6.5 -6.59642)"/>
    <path class="cls-1" d="M206.27283,62.38021c0-5.79322,2.45127-8.35572,7.98453-8.35572,5.49578,0,7.947,2.5625,7.947,8.35572v2.89661c0,5.79323-2.45126,8.35573-7.947,8.35573-5.53326,0-7.98453-2.5625-7.98453-8.35573Zm12.14345.26c0-3.86228-1.26271-5.57055-4.1964-5.57055-2.89621,0-4.15932,1.70827-4.15932,5.57055v2.3767c0,3.86228,1.26311,5.57034,4.15932,5.57034,2.93369,0,4.1964-1.70806,4.1964-5.57034Z" transform="translate(-6.5 -6.59642)"/>
    <path class="cls-1" d="M230.96921,46.74588V66.57661c0,2.74789.7428,3.60233,3.23073,3.60233h.81736v3.082h-.96568c-5.49618,0-6.87054-1.411-6.87054-7.05552V46.74588Z" transform="translate(-6.5 -6.59642)"/>
    <path class="cls-1" d="M238.39675,54.39589h2.897l.29663,1.89386c1.18856-1.59683,2.67374-2.26526,5.16208-2.26526,3.30488,0,5.422,1.22563,6.31314,3.63941a14.94492,14.94492,0,0,1,.557,4.79047V73.26094h-3.78772V62.86305c0-4.0108-1.03983-5.60763-3.71356-5.60763-2.85954,0-3.93685,1.74534-3.93685,6.35042v9.6551h-3.78772Z" transform="translate(-6.5 -6.59642)"/>
    <path class="cls-1" d="M155.98816,97.51482c-.26,4.568-3.379,6.9447-8.9498,6.9447-3.52776,0-5.90446-1.07691-7.50128-3.30529-1.18814-1.70806-1.6339-3.78772-1.6339-7.53836V88.0826c0-4.04808.55658-6.239,2.04217-7.98453,1.59723-1.93094,3.82521-2.822,7.093-2.822,5.42163,0,8.3928,2.45085,8.65276,7.05552l-3.67648.29745c-.33412-2.71122-2.0051-4.12225-4.86463-4.12225-3.82521,0-5.27331,2.15382-5.27331,7.83581V93.393c0,5.71866,1.4481,7.8354,5.27331,7.8354,3.00785,0,4.75339-1.411,5.12458-4.12184Z" transform="translate(-6.5 -6.59642)"/>
    <path class="cls-1" d="M163.19322,96.215c0,3.41652,1.6339,5.23623,4.67924,5.23623a4.5483,4.5483,0,0,0,4.08516-1.89386l2.82205,1.671c-1.55975,2.30254-3.67608,3.23113-7.27841,3.23113-5.60783,0-8.09576-2.7483-8.09576-8.94979V94.06122c0-6.46146,2.33962-9.20975,7.87288-9.20975s7.87289,2.74829,7.87289,9.20975v1.48559H163.19322Zm8.35572-3.37905v-.3716c0-3.04492-1.44851-4.67883-4.15891-4.67883a3.55312,3.55312,0,0,0-3.45361,1.671,6.35952,6.35952,0,0,0-.7432,3.04492V92.836Z" transform="translate(-6.5 -6.59642)"/>
    <path class="cls-1" d="M179.90548,85.22307h2.89661l.297,1.89386c1.18815-1.59683,2.67374-2.26546,5.16167-2.26546,3.30529,0,5.422,1.22563,6.31314,3.6394a14.93152,14.93152,0,0,1,.5574,4.79047v10.80658H191.3432V93.69c0-4.0106-1.03942-5.60742-3.71356-5.60742-2.85913,0-3.93644,1.74514-3.93644,6.35022v9.6551h-3.78772Z" transform="translate(-6.5 -6.59642)"/>
    <path class="cls-1" d="M199.55142,88.268V85.22307h2.1909l.18539-5.75615h3.60274v5.75615H209.244V88.268h-3.71356v9.1356c0,2.74789.74238,3.6394,3.19365,3.56484h.59407v3.11949h-.66864c-5.6445,0-6.90721-1.29979-6.90721-7.05553V88.268Z" transform="translate(-6.5 -6.59642)"/>
    <path class="cls-1" d="M216.89442,96.215c0,3.41652,1.63391,5.23623,4.67883,5.23623a4.5467,4.5467,0,0,0,4.08476-1.89386l2.82286,1.671c-1.55974,2.30254-3.67689,3.23113-7.27881,3.23113-5.60742,0-8.09576-2.7483-8.09576-8.94979V94.06122c0-6.46146,2.33961-9.20975,7.87288-9.20975s7.87288,2.74829,7.87288,9.20975v1.48559H216.89442Zm8.35532-3.37905v-.3716c0-3.04492-1.4481-4.67883-4.15932-4.67883a3.55391,3.55391,0,0,0-3.45361,1.671,6.35948,6.35948,0,0,0-.74239,3.04492V92.836Z" transform="translate(-6.5 -6.59642)"/>
    <path class="cls-1" d="M233.53171,85.22307h2.93369l.40868,1.59682a4.7717,4.7717,0,0,1,4.23348-1.96842,7.23268,7.23268,0,0,1,3.8248,1.07691L243.29845,89.085a4.03338,4.03338,0,0,0-2.56209-.96527c-2.41377,0-3.41693,2.0051-3.41693,6.796v9.17227h-3.78772Z" transform="translate(-6.5 -6.59642)"/>
  </g>
</svg>
