<svg width="111" height="47" viewBox="0 0 111 47" fill="none" xmlns="http://www.w3.org/2000/svg">
<g clip-path="url(#clip0)">
<path d="M20.9547 22.4376C20.972 22.3371 20.994 22.2384 21.0208 22.1414L16.1108 20.7264C16.0127 20.9854 15.8954 21.2368 15.7599 21.4783L20.9547 22.4376Z" fill="#7A48FF"/>
<path d="M27.6466 30.7311L25.3076 25.7721C25.2172 25.8142 25.1246 25.8519 25.0297 25.8853L27.0783 31.6261C27.239 31.3104 27.4293 31.0108 27.6466 30.7311V30.7311Z" fill="#7A48FF"/>
<path d="M26.1067 25.235C26.0332 25.3031 25.9565 25.3676 25.8766 25.4285L29.0053 29.4775C29.2361 29.3264 29.4778 29.1926 29.7283 29.0772L26.1067 25.235Z" fill="#7A48FF"/>
<path d="M17.7306 28.9093L21.7677 25.1041C21.6985 25.0317 21.6328 24.956 21.5707 24.8771L16.6751 28.6601C17.0342 28.7085 17.3878 28.792 17.7306 28.9093Z" fill="#7A48FF"/>
<path d="M42.7264 18.7468C42.7261 19.0115 42.7072 19.2759 42.6697 19.5379L47.4956 18.643C47.5111 18.6401 47.5259 18.6341 47.539 18.6254C47.5522 18.6166 47.5634 18.6053 47.572 18.5921C47.5806 18.5789 47.5865 18.5641 47.5892 18.5486C47.592 18.533 47.5915 18.5171 47.5879 18.5018L47.3558 17.511C47.272 17.1542 47.1805 16.8012 47.0815 16.4521C47.0773 16.4372 47.0702 16.4234 47.0605 16.4113C47.0509 16.3992 47.0391 16.3892 47.0256 16.3817C47.0121 16.3743 46.9972 16.3695 46.9819 16.3678C46.9666 16.3661 46.9511 16.3674 46.9362 16.3717L42.6131 17.6211C42.6887 17.9915 42.7266 18.3687 42.7264 18.7468V18.7468Z" fill="#7A48FF"/>
<path d="M22.1278 25.4266C22.0482 25.3658 21.9717 25.3013 21.8983 25.2331L18.2452 29.1145C18.4974 29.23 18.7407 29.3641 18.973 29.5157L22.1278 25.4266Z" fill="#7A48FF"/>
<path d="M26.435 24.8786C26.3728 24.9576 26.307 25.0333 26.2375 25.1058L30.2391 28.872C30.5789 28.7546 30.9292 28.6705 31.2853 28.6207L26.435 24.8786Z" fill="#7A48FF"/>
<path d="M25.7639 20.4212L37.4909 3.27633C37.4999 3.26331 37.506 3.24862 37.5091 3.23315C37.5121 3.21768 37.512 3.20174 37.5088 3.18631C37.5055 3.17088 37.4991 3.15628 37.4901 3.14338C37.481 3.13048 37.4694 3.11956 37.456 3.11127L36.5902 2.57669C36.2781 2.38434 35.9635 2.20006 35.6462 2.02385C35.6327 2.0164 35.6179 2.01168 35.6025 2.00997C35.5872 2.00826 35.5717 2.00959 35.5569 2.01389C35.5421 2.01819 35.5282 2.02537 35.5162 2.03502C35.5042 2.04467 35.4942 2.0566 35.4868 2.07013L25.5041 20.2594C25.5935 20.3091 25.6801 20.363 25.7639 20.4212Z" fill="#7A48FF"/>
<path d="M29.6136 9.25705C29.614 10.1456 29.4026 11.0214 28.9967 11.8118C28.5909 12.6022 28.0023 13.2844 27.28 13.8017L25.0508 20.0533C25.1473 20.0881 25.2416 20.1273 25.3335 20.1711L34.189 1.38491C34.1958 1.37065 34.1995 1.35516 34.2001 1.3394C34.2007 1.32364 34.198 1.30793 34.1923 1.29321C34.1867 1.2785 34.1781 1.26509 34.167 1.2538C34.156 1.2425 34.1429 1.23356 34.1283 1.22751L33.1886 0.837129C32.85 0.696748 32.5101 0.564753 32.1689 0.441147C32.1544 0.435928 32.139 0.433626 32.1236 0.434372C32.1082 0.435117 32.093 0.438896 32.0791 0.445492C32.0652 0.452087 32.0527 0.46137 32.0423 0.472807C32.032 0.484244 32.024 0.497611 32.0188 0.512142L29.4204 7.79901C29.5486 8.27441 29.6136 8.76466 29.6136 9.25705Z" fill="#7A48FF"/>
<path d="M28.7987 6.34832L30.6172 0.038247C30.6215 0.023092 30.6228 0.00720854 30.6208 -0.00844278C30.6189 -0.0240941 30.6138 -0.0391878 30.6058 -0.0528103C30.5979 -0.0664329 30.5872 -0.0783014 30.5746 -0.0876975C30.5619 -0.0970936 30.5475 -0.103822 30.5321 -0.107475L29.5423 -0.34325C29.1857 -0.427927 28.8291 -0.504106 28.4725 -0.571788C28.4573 -0.574628 28.4418 -0.574447 28.4267 -0.571257C28.4116 -0.568067 28.3973 -0.56193 28.3846 -0.553198C28.3719 -0.544466 28.361 -0.53331 28.3526 -0.520371C28.3442 -0.507431 28.3384 -0.492962 28.3357 -0.477793L27.3659 4.7735C27.9394 5.20243 28.4257 5.73694 28.7987 6.34832V6.34832Z" fill="#7A48FF"/>
<path d="M42.2499 16.4875L46.5061 14.9686C46.521 14.9633 46.5346 14.9551 46.5462 14.9443C46.5578 14.9336 46.567 14.9207 46.5735 14.9063C46.5799 14.8919 46.5833 14.8763 46.5835 14.8605C46.5838 14.8448 46.5808 14.8291 46.5748 14.8145L46.1884 13.8732C46.049 13.5342 45.9027 13.2002 45.7495 12.8712C45.743 12.8572 45.7337 12.8447 45.7223 12.8343C45.7109 12.8239 45.6976 12.8159 45.6831 12.8106C45.6686 12.8054 45.6532 12.8031 45.6378 12.8038C45.6223 12.8046 45.6072 12.8084 45.5933 12.8149L41.1861 14.8938C41.6296 15.3599 41.9895 15.8991 42.2499 16.4875V16.4875Z" fill="#7A48FF"/>
<path d="M40.2204 14.0822L44.9401 11.4873C44.9539 11.4797 44.9661 11.4694 44.9758 11.457C44.9855 11.4446 44.9926 11.4303 44.9966 11.4151C45.0007 11.3998 45.0016 11.3839 44.9993 11.3683C44.997 11.3527 44.9916 11.3377 44.9834 11.3243L44.452 10.4565C44.2604 10.144 44.0628 9.83758 43.8591 9.53714C43.8505 9.5244 43.8393 9.51349 43.8264 9.50505C43.8135 9.49661 43.7991 9.49079 43.7839 9.48795C43.7688 9.4851 43.7532 9.48527 43.7381 9.48845C43.723 9.49164 43.7087 9.49776 43.696 9.50649L38.2193 13.2585C38.9338 13.3994 39.6137 13.6793 40.2204 14.0822V14.0822Z" fill="#7A48FF"/>
<path d="M26.1389 20.7274L40.3776 5.59877C40.3884 5.58729 40.3968 5.57373 40.4022 5.55892C40.4076 5.54411 40.41 5.52835 40.4091 5.5126C40.4083 5.49685 40.4042 5.48144 40.3973 5.46729C40.3903 5.45314 40.3805 5.44056 40.3685 5.4303L39.5958 4.7683C39.3173 4.53004 39.0349 4.29934 38.7486 4.0762C38.7364 4.06674 38.7225 4.05979 38.7076 4.05573C38.6927 4.05168 38.6772 4.0506 38.6619 4.05255C38.6466 4.05451 38.6318 4.05947 38.6185 4.06715C38.6051 4.07482 38.5934 4.08506 38.5839 4.09728L25.9077 20.5274C25.988 20.5903 26.0651 20.6569 26.1389 20.7274Z" fill="#7A48FF"/>
<path d="M26.4671 21.0937L31.8346 16.9461C32.1887 15.906 32.8411 14.9932 33.7105 14.3214C34.5799 13.6496 35.6278 13.2486 36.7236 13.1683L42.9089 8.38889C42.9214 8.37924 42.9317 8.36717 42.9394 8.35339C42.9471 8.33962 42.9519 8.32443 42.9536 8.30874C42.9552 8.29306 42.9536 8.2772 42.949 8.26214C42.9443 8.24707 42.9366 8.23311 42.9264 8.22109L42.2673 7.44588C42.0297 7.16679 41.7871 6.89458 41.5394 6.62923C41.5289 6.61798 41.5162 6.60892 41.5022 6.60257C41.4881 6.59623 41.4729 6.59272 41.4575 6.59225C41.4421 6.59178 41.4267 6.59435 41.4123 6.59983C41.3979 6.60531 41.3847 6.61358 41.3735 6.62417L26.2703 20.8601C26.3396 20.9346 26.4052 21.0125 26.4671 21.0937Z" fill="#7A48FF"/>
<path d="M22.9718 25.8835C22.8771 25.85 22.7846 25.8121 22.6944 25.7699L20.3367 30.7715C20.5553 31.0525 20.7466 31.3538 20.908 31.6712L22.9718 25.8835Z" fill="#7A48FF"/>
<path d="M26.8147 21.6724C26.857 21.7643 26.8949 21.8585 26.9283 21.955L31.7393 20.2382C31.6658 19.9715 31.6122 19.6997 31.5791 19.4251L26.8147 21.6724Z" fill="#7A48FF"/>
<path d="M31.8951 20.7184L26.985 22.1374C27.0119 22.2345 27.0341 22.3334 27.0516 22.4341L32.245 21.4711C32.1098 21.2292 31.9928 20.9777 31.8951 20.7184V20.7184Z" fill="#7A48FF"/>
<path d="M22.2699 25.5294L19.356 29.7896C19.5737 29.9594 19.7786 30.145 19.969 30.3448L22.5261 25.6855C22.438 25.6376 22.3526 25.5855 22.2699 25.5294Z" fill="#7A48FF"/>
<path d="M15.4804 21.9261C15.2761 22.2214 15.0439 22.4964 14.7871 22.7474L20.9102 22.9153C20.9118 22.8132 20.9183 22.7124 20.9295 22.613L15.4804 21.9261Z" fill="#7A48FF"/>
<path d="M21.0777 21.9579C21.1108 21.8616 21.1485 21.7675 21.1907 21.6757L16.4292 19.4312C16.3958 19.7054 16.3421 19.9768 16.2684 20.243L21.0777 21.9579Z" fill="#7A48FF"/>
<path d="M41.2682 22.5136L47.8867 22.3272C47.9025 22.3268 47.918 22.3231 47.9323 22.3165C47.9466 22.3099 47.9595 22.3005 47.97 22.2888C47.9806 22.277 47.9887 22.2633 47.9938 22.2484C47.9989 22.2335 48.0009 22.2177 47.9997 22.2019L47.9236 21.1872C47.8959 20.8218 47.8601 20.4589 47.8163 20.0986C47.8144 20.0833 47.8095 20.0685 47.8018 20.0551C47.7942 20.0417 47.784 20.0299 47.7718 20.0205C47.7597 20.011 47.7457 20.004 47.7308 20C47.716 19.9959 47.7004 19.9948 47.6851 19.9968L42.3876 20.6685C42.1378 21.3504 41.7576 21.9771 41.2682 22.5136V22.5136Z" fill="#7A48FF"/>
<path d="M32.5237 21.9192L27.077 22.6098C27.0884 22.7094 27.095 22.8104 27.0967 22.9128L33.2147 22.7404C32.9587 22.4894 32.7273 22.2143 32.5237 21.9192V21.9192Z" fill="#7A48FF"/>
<path d="M25.7343 25.5314C25.6515 25.5874 25.5659 25.6393 25.4775 25.6873L28.0153 30.3031C28.2047 30.1043 28.4084 29.9196 28.6247 29.7505L25.7343 25.5314Z" fill="#7A48FF"/>
<path d="M23.132 19.9965C23.2294 19.9679 23.3287 19.9442 23.4298 19.9251L22.4473 14.6266C22.109 14.5277 21.7808 14.3969 21.4673 14.2358L23.132 19.9965Z" fill="#7A48FF"/>
<path d="M26.372 4.18119L26.9883 -0.708606C26.9903 -0.724254 26.9891 -0.740139 26.9847 -0.755301C26.9804 -0.770463 26.973 -0.784587 26.963 -0.796817C26.9531 -0.809047 26.9408 -0.81913 26.9268 -0.826455C26.9128 -0.83378 26.8975 -0.838196 26.8818 -0.839435L25.8674 -0.919366C25.502 -0.947897 25.1379 -0.968043 24.7751 -0.979806C24.7597 -0.980268 24.7444 -0.977683 24.7299 -0.972199C24.7155 -0.966715 24.7023 -0.95844 24.6911 -0.947848C24.6799 -0.937255 24.6709 -0.924555 24.6646 -0.910474C24.6583 -0.896392 24.6549 -0.881208 24.6545 -0.86579L24.5296 3.68643C25.1677 3.74393 25.791 3.91132 26.372 4.18119V4.18119Z" fill="#7A48FF"/>
<path d="M16.4724 18.7468C16.4724 18.7871 16.4702 18.8269 16.4693 18.867L21.2753 21.5046C21.3234 21.4149 21.3758 21.3279 21.4322 21.2436L16.39 17.7948C16.4444 18.1092 16.472 18.4277 16.4724 18.7468V18.7468Z" fill="#7A48FF"/>
<path d="M23.6066 19.8974C23.707 19.8846 23.8088 19.8766 23.912 19.8735L23.7704 14.8456C23.4962 14.8336 23.2233 14.8015 22.9539 14.7495L23.6066 19.8974Z" fill="#7A48FF"/>
<path d="M25.5439 14.6397L24.5681 19.9235C24.6693 19.9422 24.7687 19.9657 24.8663 19.994L26.518 14.2624C26.2059 14.4185 25.8797 14.5448 25.5439 14.6397V14.6397Z" fill="#7A48FF"/>
<path d="M31.622 17.7783L26.5713 21.2384C26.6281 21.3226 26.6806 21.4097 26.729 21.4996L31.5394 18.8549C31.5388 18.8188 31.5367 18.783 31.5367 18.7468C31.5371 18.4221 31.5656 18.098 31.622 17.7783V17.7783Z" fill="#7A48FF"/>
<path d="M24.0858 19.8733C24.1889 19.876 24.2908 19.8836 24.3912 19.8963L25.0389 14.7574C24.7697 14.807 24.4972 14.8369 24.2236 14.8467L24.0858 19.8733Z" fill="#7A48FF"/>
<path d="M23.1525 25.9409L21.2563 32.5208C21.5861 33.57 21.5996 34.693 21.295 35.7497C20.9905 36.8064 20.3815 37.75 19.5439 38.4627L17.3829 45.9617C17.3785 45.9768 17.3773 45.9927 17.3792 46.0084C17.3812 46.024 17.3863 46.0391 17.3942 46.0527C17.4022 46.0664 17.4128 46.0782 17.4255 46.0876C17.4381 46.097 17.4526 46.1038 17.4679 46.1074L18.4578 46.3432C18.8144 46.4278 19.171 46.504 19.5276 46.5717C19.5427 46.5746 19.5583 46.5744 19.5734 46.5712C19.5885 46.568 19.6028 46.5619 19.6155 46.5531C19.6282 46.5444 19.6391 46.5333 19.6475 46.5203C19.6559 46.5074 19.6616 46.4929 19.6644 46.4777L23.4444 26.009C23.3453 25.9909 23.2481 25.9682 23.1525 25.9409Z" fill="#7A48FF"/>
<path d="M31.9011 39.7509C31.18 39.7309 30.4696 39.5709 29.8096 39.2799L32.0314 45.5061C32.0367 45.5209 32.045 45.5345 32.0557 45.5461C32.0664 45.5577 32.0793 45.567 32.0938 45.5734C32.1082 45.5798 32.1237 45.5832 32.1395 45.5835C32.1553 45.5837 32.1709 45.5807 32.1855 45.5748L33.1268 45.1884C33.4658 45.0489 33.7998 44.9026 34.1288 44.7494C34.1428 44.7429 34.1553 44.7337 34.1657 44.7223C34.1761 44.7109 34.1842 44.6975 34.1894 44.683C34.1946 44.6685 34.1969 44.6531 34.1962 44.6377C34.1954 44.6223 34.1917 44.6072 34.1851 44.5932L31.9011 39.7509Z" fill="#7A48FF"/>
<path d="M28.4614 38.438C27.6146 37.7244 26.9984 36.7757 26.691 35.7119C26.3836 34.648 26.3986 33.5169 26.7343 32.4616L24.8503 25.942C24.7547 25.9692 24.6573 25.9918 24.5582 26.0098L28.357 46.4956C28.3599 46.5111 28.3659 46.5259 28.3746 46.539C28.3834 46.5521 28.3947 46.5633 28.4079 46.572C28.4211 46.5806 28.4359 46.5864 28.4514 46.5892C28.467 46.5919 28.4829 46.5915 28.4983 46.5879L29.489 46.3558C29.8458 46.2719 30.1988 46.1805 30.548 46.0815C30.5628 46.0772 30.5766 46.0701 30.5887 46.0605C30.6008 46.0509 30.6108 46.039 30.6183 46.0255C30.6257 46.012 30.6305 45.9972 30.6322 45.9819C30.6339 45.9665 30.6326 45.951 30.6283 45.9362L28.4614 38.438Z" fill="#7A48FF"/>
<path d="M23.6174 26.0355L21.0117 46.7085C21.0097 46.7242 21.011 46.7401 21.0153 46.7552C21.0197 46.7704 21.027 46.7845 21.037 46.7968C21.0469 46.809 21.0593 46.8191 21.0732 46.8264C21.0872 46.8337 21.1025 46.8381 21.1182 46.8394L22.1326 46.9193C22.4981 46.9478 22.8621 46.968 23.2249 46.9797C23.2403 46.9802 23.2557 46.9776 23.2701 46.9721C23.2845 46.9667 23.2977 46.9584 23.3089 46.9478C23.3201 46.9372 23.3291 46.9245 23.3354 46.9104C23.3417 46.8963 23.3452 46.8812 23.3456 46.8657L23.9161 26.0581C23.8153 26.0553 23.7157 26.0477 23.6174 26.0355Z" fill="#7A48FF"/>
<path d="M24.0862 26.0582L24.6728 46.8867C24.6732 46.9024 24.6769 46.9179 24.6835 46.9323C24.6901 46.9466 24.6995 46.9594 24.7112 46.97C24.723 46.9805 24.7367 46.9886 24.7516 46.9937C24.7665 46.9988 24.7823 47.0008 24.7981 46.9997L25.8127 46.9235C26.1782 46.8958 26.5411 46.8601 26.9014 46.8162C26.9167 46.8143 26.9315 46.8094 26.9449 46.8018C26.9583 46.7942 26.9701 46.784 26.9795 46.7718C26.989 46.7596 26.996 46.7457 27 46.7308C27.0041 46.7159 27.0052 46.7004 27.0032 46.6851L24.385 26.036C24.2867 26.0481 24.1871 26.0555 24.0862 26.0582Z" fill="#7A48FF"/>
<path d="M10.9808 36.833L7.62245 40.4012C7.61164 40.4127 7.60327 40.4262 7.59786 40.441C7.59244 40.4559 7.59008 40.4716 7.59093 40.4874C7.59177 40.5031 7.59581 40.5185 7.60278 40.5327C7.60976 40.5468 7.61953 40.5594 7.63151 40.5697L8.40424 41.2317C8.68278 41.4699 8.96517 41.7006 9.25141 41.9238C9.2636 41.9332 9.27753 41.9402 9.29241 41.9442C9.30729 41.9483 9.32283 41.9494 9.33813 41.9474C9.35343 41.9454 9.36819 41.9405 9.38157 41.9328C9.39494 41.9251 9.40668 41.9149 9.41609 41.9027L12.1599 38.3464C11.6829 37.9133 11.2841 37.4013 10.9808 36.833V36.833Z" fill="#7A48FF"/>
<path d="M16.0839 39.7933L13.811 44.615C13.8043 44.6293 13.8005 44.6448 13.7999 44.6605C13.7994 44.6763 13.802 44.692 13.8077 44.7067C13.8134 44.7214 13.822 44.7348 13.833 44.7461C13.844 44.7574 13.8572 44.7664 13.8717 44.7724L14.8114 45.1628C15.15 45.3032 15.4899 45.4352 15.8312 45.5588C15.8457 45.564 15.8611 45.5663 15.8765 45.5656C15.8919 45.5648 15.907 45.561 15.9209 45.5544C15.9349 45.5478 15.9474 45.5386 15.9577 45.5271C15.9681 45.5157 15.9761 45.5023 15.9812 45.4878L18.1806 39.32C17.519 39.6125 16.8069 39.7732 16.0839 39.7933V39.7933Z" fill="#7A48FF"/>
<path d="M13.0514 39.0068L10.5091 42.7236C10.5002 42.7366 10.494 42.7513 10.4909 42.7668C10.4879 42.7823 10.488 42.7982 10.4912 42.8136C10.4945 42.829 10.5009 42.8436 10.51 42.8565C10.519 42.8694 10.5306 42.8804 10.5441 42.8887L11.4099 43.4232C11.7219 43.6156 12.0365 43.7999 12.3538 43.9761C12.3673 43.9835 12.3822 43.9882 12.3975 43.99C12.4128 43.9917 12.4283 43.9903 12.4431 43.986C12.458 43.9817 12.4718 43.9746 12.4838 43.9649C12.4958 43.9553 12.5058 43.9433 12.5133 43.9298L14.8389 39.6923C14.2079 39.5689 13.6031 39.337 13.0514 39.0068V39.0068Z" fill="#7A48FF"/>
<path d="M37.0022 36.7943C36.6992 37.3611 36.3011 37.8716 35.8254 38.3037L38.6111 41.9088C38.6208 41.9213 38.6328 41.9317 38.6466 41.9393C38.6604 41.947 38.6756 41.9518 38.6912 41.9535C38.7069 41.9551 38.7228 41.9535 38.7378 41.9489C38.7529 41.9442 38.7669 41.9366 38.7789 41.9263L39.5541 41.2672C39.8332 41.0296 40.1054 40.787 40.3707 40.5394C40.382 40.5288 40.391 40.5162 40.3974 40.5021C40.4037 40.488 40.4072 40.4729 40.4077 40.4574C40.4082 40.442 40.4056 40.4267 40.4001 40.4123C40.3947 40.3978 40.3864 40.3846 40.3758 40.3734L37.0022 36.7943Z" fill="#7A48FF"/>
<path d="M47.4778 27.3356L27.0402 23.5614C27.0207 23.6611 26.9965 23.7591 26.9677 23.8552L46.9618 29.6171C46.9769 29.6215 46.9928 29.6227 47.0085 29.6208C47.0241 29.6188 47.0392 29.6137 47.0528 29.6058C47.0665 29.5978 47.0783 29.5872 47.0877 29.5745C47.0971 29.5619 47.1038 29.5474 47.1075 29.5321L47.3433 28.5423C47.4279 28.1856 47.5041 27.829 47.5718 27.4725C47.5747 27.4573 47.5745 27.4417 47.5713 27.4266C47.5681 27.4115 47.562 27.3972 47.5532 27.3845C47.5445 27.3718 47.5333 27.3609 47.5204 27.3525C47.5075 27.3442 47.493 27.3384 47.4778 27.3356V27.3356Z" fill="#7A48FF"/>
<path d="M47.8658 23.6544L40.1704 23.4434C39.2214 24.0581 38.1084 24.3705 36.9782 24.3395C35.8479 24.3085 34.7537 23.9355 33.8398 23.2698L27.095 23.0848C27.0911 23.1868 27.0824 23.2874 27.0687 23.3867L47.7086 25.9882C47.7243 25.9902 47.7401 25.989 47.7553 25.9846C47.7705 25.9803 47.7846 25.9729 47.7968 25.9629C47.8091 25.953 47.8191 25.9407 47.8265 25.9267C47.8338 25.9127 47.8382 25.8974 47.8394 25.8817L47.9194 24.8673C47.9479 24.5019 47.9681 24.1378 47.9798 23.775C47.9803 23.7596 47.9777 23.7443 47.9722 23.7299C47.9667 23.7154 47.9584 23.7022 47.9478 23.691C47.9373 23.6798 47.9246 23.6708 47.9105 23.6645C47.8964 23.6582 47.8812 23.6548 47.8658 23.6544Z" fill="#7A48FF"/>
<path d="M37.6219 33.5096C37.7077 34.2315 37.651 34.9633 37.4548 35.6633L41.4012 39.3776C41.4127 39.3884 41.4263 39.3967 41.4411 39.4021C41.4559 39.4076 41.4716 39.4099 41.4874 39.4091C41.5031 39.4082 41.5186 39.4042 41.5327 39.3972C41.5468 39.3903 41.5594 39.3805 41.5697 39.3685L42.2317 38.5958C42.47 38.3172 42.7007 38.0348 42.9238 37.7486C42.9332 37.7364 42.9402 37.7225 42.9443 37.7076C42.9483 37.6927 42.9494 37.6772 42.9474 37.6619C42.9455 37.6466 42.9405 37.6318 42.9328 37.6184C42.9252 37.6051 42.9149 37.5933 42.9027 37.5839L37.6219 33.5096Z" fill="#7A48FF"/>
<path d="M10.3242 34.2027C10.3247 33.9798 10.3383 33.7571 10.3651 33.5359L5.09123 37.6111C5.07875 37.6207 5.06836 37.6328 5.06068 37.6466C5.05301 37.6603 5.0482 37.6755 5.04656 37.6912C5.04492 37.7069 5.04648 37.7228 5.05114 37.7378C5.0558 37.7529 5.06347 37.7669 5.07369 37.7789L5.73279 38.5541C5.97042 38.8331 6.21304 39.1054 6.46066 39.3707C6.47121 39.382 6.48388 39.391 6.49793 39.3974C6.51199 39.4037 6.52716 39.4072 6.54258 39.4077C6.558 39.4082 6.57336 39.4056 6.58778 39.4001C6.60219 39.3946 6.61539 39.3864 6.62661 39.3758L10.528 35.6984C10.3929 35.2113 10.3243 34.7082 10.3242 34.2027V34.2027Z" fill="#7A48FF"/>
<path d="M34.936 38.9629C34.3858 39.2926 33.7826 39.5246 33.1533 39.6486L35.5127 43.94C35.5203 43.9539 35.5306 43.966 35.543 43.9757C35.5554 43.9854 35.5697 43.9925 35.5849 43.9966C35.6002 44.0006 35.6161 44.0015 35.6317 43.9992C35.6473 43.997 35.6623 43.9915 35.6757 43.9833L36.5435 43.452C36.856 43.2603 37.1624 43.0627 37.4628 42.8591C37.4756 42.8504 37.4865 42.8393 37.4949 42.8264C37.5034 42.8135 37.5092 42.799 37.512 42.7839C37.5149 42.7687 37.5147 42.7531 37.5115 42.738C37.5084 42.7229 37.5022 42.7086 37.4935 42.6959L34.936 38.9629Z" fill="#7A48FF"/>
<path d="M44.9298 34.4867L26.7007 24.4822C26.6512 24.57 26.5977 24.6551 26.54 24.7374L32.1392 28.5672C33.2416 28.5816 34.3151 28.9213 35.2251 29.5437C36.135 30.1661 36.8408 31.0434 37.2538 32.0656L43.7236 36.4909C43.7367 36.4998 43.7513 36.506 43.7668 36.509C43.7823 36.5121 43.7982 36.512 43.8137 36.5087C43.8291 36.5055 43.8437 36.4991 43.8566 36.49C43.8695 36.4809 43.8804 36.4693 43.8887 36.4559L44.4233 35.5901C44.6156 35.2781 44.7999 34.9634 44.9761 34.6461C44.9836 34.6326 44.9883 34.6178 44.99 34.6025C44.9917 34.5872 44.9904 34.5716 44.9861 34.5568C44.9818 34.542 44.9746 34.5282 44.9649 34.5162C44.9553 34.5042 44.9434 34.4941 44.9298 34.4867V34.4867Z" fill="#7A48FF"/>
<path d="M46.4879 31.0187L26.9075 24.0367C26.8725 24.1317 26.833 24.2243 26.7891 24.3147L45.6151 33.189C45.6294 33.1957 45.6448 33.1995 45.6606 33.2C45.6764 33.2006 45.6921 33.198 45.7068 33.1923C45.7215 33.1866 45.7349 33.178 45.7462 33.167C45.7575 33.156 45.7664 33.1428 45.7725 33.1282L46.1629 32.1886C46.3033 31.85 46.4352 31.5101 46.5589 31.1688C46.5641 31.1543 46.5664 31.1389 46.5656 31.1235C46.5649 31.1081 46.5611 31.093 46.5545 31.079C46.5479 31.0651 46.5386 31.0526 46.5272 31.0422C46.5158 31.0319 46.5024 31.0239 46.4879 31.0187Z" fill="#7A48FF"/>
<path d="M22.2365 20.4259C22.32 20.3677 22.4063 20.3136 22.4956 20.2636L12.4874 2.05993C12.4798 2.04611 12.4695 2.03398 12.457 2.02427C12.4446 2.01455 12.4303 2.00746 12.4151 2.00341C12.3999 1.99937 12.384 1.99846 12.3684 2.00073C12.3528 2.00301 12.3378 2.00843 12.3243 2.01665L11.4566 2.54801C11.1441 2.73964 10.8376 2.93726 10.5372 3.1409C10.5245 3.14958 10.5136 3.16069 10.5051 3.1736C10.4967 3.18651 10.4909 3.20096 10.488 3.21611C10.4852 3.23127 10.4853 3.24685 10.4885 3.26194C10.4917 3.27703 10.4978 3.29135 10.5066 3.30406L22.2365 20.4259Z" fill="#7A48FF"/>
<path d="M21.8626 20.7324C21.9361 20.662 22.0129 20.5952 22.0931 20.5322L9.38892 4.09118C9.37928 4.0787 9.3672 4.06831 9.35343 4.06063C9.33965 4.05295 9.32446 4.04814 9.30877 4.0465C9.29308 4.04486 9.27723 4.04642 9.26216 4.05109C9.24709 4.05575 9.23313 4.06342 9.22111 4.07364L8.4459 4.73275C8.16682 4.97037 7.89461 5.21299 7.62926 5.46061C7.61801 5.47116 7.60895 5.48383 7.6026 5.49789C7.59626 5.51194 7.59275 5.52711 7.59228 5.54253C7.59181 5.55795 7.59438 5.5733 7.59986 5.58772C7.60534 5.60214 7.6136 5.61534 7.62419 5.62655L21.8626 20.7324Z" fill="#7A48FF"/>
<path d="M11.2538 13.1659C12.3594 13.2406 13.4179 13.6418 14.2952 14.3187C15.1726 14.9956 15.8292 15.9177 16.182 16.9681L21.5359 21.0988C21.5973 21.0176 21.6627 20.9398 21.7318 20.8652L6.59883 6.62239C6.58735 6.61158 6.57379 6.60322 6.55898 6.5978C6.54417 6.59238 6.52841 6.59002 6.51266 6.59087C6.49691 6.59171 6.4815 6.59574 6.46735 6.60272C6.4532 6.60969 6.44062 6.61946 6.43036 6.63144L5.76836 7.40419C5.5301 7.68272 5.2994 7.96511 5.07626 8.25135C5.06681 8.26354 5.05985 8.27747 5.05579 8.29235C5.05174 8.30723 5.05066 8.32277 5.05262 8.33807C5.05457 8.35337 5.05953 8.36813 5.06721 8.38151C5.07488 8.39489 5.08513 8.40662 5.09735 8.41603L11.2538 13.1659Z" fill="#7A48FF"/>
<path d="M3.0702 11.5132L7.77136 14.0933C8.37516 13.689 9.05233 13.4069 9.7646 13.263L4.27639 9.50904C4.26337 9.50013 4.24869 9.49396 4.23321 9.4909C4.21774 9.48784 4.20181 9.48794 4.18638 9.49121C4.17095 9.49448 4.15635 9.50085 4.14345 9.50993C4.13055 9.51901 4.11963 9.53061 4.11134 9.54403L3.57675 10.4098C3.3844 10.7218 3.20012 11.0365 3.02392 11.3538C3.01646 11.3673 3.01174 11.3821 3.01003 11.3974C3.00832 11.4128 3.00965 11.4283 3.01395 11.4431C3.01825 11.4579 3.02544 11.4717 3.03509 11.4838C3.04474 11.4958 3.05667 11.5058 3.0702 11.5132Z" fill="#7A48FF"/>
<path d="M22.6671 20.174C22.7587 20.13 22.8528 20.0906 22.9493 20.0556L20.7041 13.7638C19.8053 13.102 19.1248 12.1869 18.7497 11.1357C18.3746 10.0846 18.322 8.94532 18.5987 7.86409L15.9687 0.493892C15.9634 0.479038 15.9551 0.465413 15.9444 0.453842C15.9337 0.442271 15.9207 0.432994 15.9063 0.426573C15.8919 0.420153 15.8763 0.416721 15.8606 0.416486C15.8448 0.416252 15.8291 0.419219 15.8146 0.425208L14.8732 0.811599C14.5343 0.951032 14.2002 1.09734 13.8712 1.25053C13.8573 1.25707 13.8447 1.26631 13.8343 1.27771C13.8239 1.28911 13.8159 1.30245 13.8107 1.31696C13.8054 1.33147 13.8031 1.34687 13.8039 1.36228C13.8046 1.37768 13.8084 1.39279 13.815 1.40674L22.6671 20.174Z" fill="#7A48FF"/>
<path d="M23.4562 3.69036L23.3272 -0.886688C23.3265 -0.905648 23.321 -0.924118 23.3113 -0.940432C23.3016 -0.956747 23.288 -0.970393 23.2717 -0.98014C23.248 -0.979305 23.2243 -0.97822 23.2006 -0.977448C23.2241 -0.978242 23.2478 -0.979458 23.2713 -0.980373C23.2509 -0.994177 23.2266 -1.00096 23.202 -0.999698L22.1873 -0.923553C21.8218 -0.895866 21.4589 -0.860093 21.0986 -0.816235C21.0833 -0.814336 21.0685 -0.809434 21.0551 -0.80181C21.0417 -0.794186 21.0299 -0.783991 21.0205 -0.771808C21.011 -0.759625 21.0041 -0.745695 21 -0.730816C20.9959 -0.715937 20.9948 -0.700402 20.9968 -0.685101L21.6166 4.20327C22.1956 3.92744 22.818 3.75391 23.4562 3.69036Z" fill="#7A48FF"/>
<path d="M19.2047 6.40648C19.5721 5.78779 20.0548 5.24538 20.6267 4.80868L19.643 -0.49563C19.6402 -0.511135 19.6342 -0.525896 19.6254 -0.539019C19.6167 -0.552143 19.6054 -0.563356 19.5922 -0.571982C19.579 -0.580607 19.5641 -0.586466 19.5486 -0.589203C19.5331 -0.59194 19.5172 -0.591499 19.5018 -0.587906L18.5111 -0.355833C18.1543 -0.271975 17.8013 -0.180539 17.4521 -0.0815242C17.4373 -0.0772817 17.4234 -0.0701538 17.4114 -0.0605492C17.3993 -0.0509446 17.3892 -0.0390521 17.3818 -0.0255538C17.3743 -0.0120554 17.3696 0.00278323 17.3679 0.0181117C17.3661 0.0334403 17.3675 0.0489569 17.3718 0.0637722L19.2047 6.40648Z" fill="#7A48FF"/>
<path d="M0.13424 22.3456L6.75364 22.5271C6.26213 21.9918 5.87964 21.3659 5.62755 20.6843L0.291424 20.0117C0.275777 20.0097 0.259891 20.011 0.24473 20.0153C0.229569 20.0197 0.215446 20.027 0.203216 20.037C0.190987 20.0469 0.180905 20.0593 0.173579 20.0733C0.166254 20.0872 0.161839 20.1025 0.1606 20.1183L0.0806641 21.1326C0.0521333 21.4981 0.0319868 21.8622 0.0202245 22.2249C0.0197633 22.2403 0.0223489 22.2557 0.0278335 22.2701C0.033318 22.2845 0.0415934 22.2977 0.0521854 22.3089C0.0627775 22.3201 0.0754778 22.3291 0.0895584 22.3354C0.103639 22.3417 0.118823 22.3452 0.13424 22.3456Z" fill="#7A48FF"/>
<path d="M20.912 23.0869L14.1589 23.2772C13.2482 23.9375 12.1595 24.3078 11.035 24.3394C9.91052 24.3711 8.80266 24.0627 7.85625 23.4547L0.113324 23.6727C0.0975588 23.6732 0.0820469 23.6768 0.0677276 23.6834C0.0534082 23.69 0.0405789 23.6995 0.0300158 23.7112C0.0194526 23.7229 0.0113752 23.7366 0.00627216 23.7516C0.00116917 23.7665 -0.00085332 23.7823 0.000327007 23.798L0.0764677 24.8127C0.104164 25.1782 0.139937 25.5411 0.183786 25.9014C0.185685 25.9167 0.190587 25.9315 0.198211 25.9449C0.205835 25.9583 0.21603 25.97 0.228213 25.9795C0.240396 25.989 0.254326 25.9959 0.269205 26C0.284084 26.0041 0.299619 26.0052 0.31492 26.0032L20.9383 23.3882C20.9248 23.2892 20.916 23.1888 20.912 23.0869Z" fill="#7A48FF"/>
<path d="M1.5122 14.9812L5.75601 16.4945C6.0155 15.9061 6.37439 15.3667 6.81695 14.9001L2.38498 12.811C2.37072 12.8042 2.35523 12.8005 2.33947 12.7999C2.32371 12.7993 2.308 12.802 2.29328 12.8077C2.27857 12.8133 2.26516 12.8219 2.25386 12.8329C2.24257 12.844 2.23362 12.8571 2.22757 12.8717L1.83719 13.8114C1.69681 14.15 1.56482 14.4899 1.44121 14.8311C1.43599 14.8456 1.43369 14.861 1.43443 14.8764C1.43518 14.8919 1.43896 14.907 1.44555 14.9209C1.45215 14.9348 1.46143 14.9473 1.47287 14.9577C1.4843 14.968 1.49767 14.976 1.5122 14.9812Z" fill="#7A48FF"/>
<path d="M21.0988 24.0353L1.49392 31.0313C1.47907 31.0366 1.46544 31.0449 1.45387 31.0556C1.4423 31.0663 1.43303 31.0793 1.4266 31.0937C1.42018 31.1081 1.41675 31.1237 1.41652 31.1394C1.41628 31.1552 1.41925 31.1709 1.42524 31.1854L1.81163 32.1268C1.95107 32.4657 2.09738 32.7997 2.25056 33.1288C2.2571 33.1427 2.26634 33.1553 2.27774 33.1657C2.28914 33.1761 2.30248 33.1841 2.31699 33.1893C2.3315 33.1945 2.3469 33.1969 2.3623 33.1961C2.37771 33.1954 2.39282 33.1916 2.40677 33.185L21.2168 24.3128C21.1731 24.2226 21.1338 24.1301 21.0988 24.0353Z" fill="#7A48FF"/>
<path d="M20.967 23.5624L0.504434 27.3569C0.488926 27.3598 0.474163 27.3658 0.461038 27.3746C0.447913 27.3833 0.436698 27.3946 0.428072 27.4078C0.419447 27.421 0.413589 27.4358 0.410855 27.4514C0.40812 27.4669 0.408564 27.4828 0.412162 27.4982L0.644231 28.4889C0.728086 28.8457 0.819523 29.1987 0.918544 29.5479C0.922787 29.5627 0.929915 29.5766 0.939519 29.5886C0.949124 29.6007 0.961016 29.6108 0.974514 29.6182C0.988012 29.6257 1.00285 29.6304 1.01818 29.6321C1.03351 29.6338 1.04902 29.6325 1.06384 29.6282L21.0394 23.8555C21.0107 23.7597 20.9865 23.662 20.967 23.5624Z" fill="#7A48FF"/>
<path d="M15.8105 28.6105L21.4659 24.7361C21.4085 24.6539 21.3551 24.569 21.3057 24.4813L3.16706 34.4537C3.13942 34.4689 3.11515 34.4896 3.09572 34.5144C3.07628 34.5393 3.06209 34.5678 3.054 34.5983C3.04591 34.6288 3.04409 34.6606 3.04865 34.6918C3.05321 34.723 3.06406 34.753 3.08053 34.7799L3.54808 35.5435C3.73971 35.8559 3.93734 36.1624 4.14096 36.4628C4.14965 36.4755 4.16076 36.4864 4.17367 36.4949C4.18658 36.5033 4.20102 36.5091 4.21618 36.512C4.23134 36.5148 4.24691 36.5147 4.262 36.5115C4.2771 36.5083 4.29141 36.5022 4.30413 36.4935L10.7406 32.0839C11.1545 31.0733 11.8551 30.206 12.756 29.5888C13.6569 28.9716 14.7187 28.6316 15.8105 28.6105V28.6105Z" fill="#7A48FF"/>
<path d="M0.522234 18.6643L5.34144 19.5543C5.24842 18.9172 5.26585 18.2689 5.39298 17.6378L1.03829 16.3828C1.02314 16.3785 1.00725 16.3772 0.991603 16.3792C0.975952 16.3811 0.960859 16.3862 0.947237 16.3942C0.933614 16.4021 0.921746 16.4127 0.91235 16.4254C0.902954 16.4381 0.896224 16.4525 0.892569 16.4679L0.656795 17.4577C0.572118 17.8143 0.495934 18.1709 0.428243 18.5275C0.425403 18.5427 0.425583 18.5582 0.428773 18.5733C0.431962 18.5884 0.438099 18.6027 0.446831 18.6154C0.455563 18.6281 0.466718 18.639 0.479657 18.6474C0.492597 18.6558 0.507065 18.6615 0.522234 18.6643Z" fill="#7A48FF"/>
<path d="M59.247 3.18204H66.3105V4.64806H61.0295V8.41296H65.4942V9.87898H61.0295V15.0767H59.247V3.18204Z" fill="#7A48FF"/>
<path d="M68.4597 3.09879H70.1588V5.03121H68.4597V3.09879ZM68.4597 6.61382H70.1588V15.0767H68.4597V6.61382Z" fill="#7A48FF"/>
<path d="M74.6235 3.18204V12.078C74.6235 13.3108 74.9569 13.694 76.073 13.694H76.4395V15.0767H76.0065C73.5407 15.0767 72.9244 14.4436 72.9244 11.9115V3.18204H74.6235Z" fill="#7A48FF"/>
<path d="M77.8391 6.61381H79.1385L79.2717 7.44676C79.5058 7.10517 79.8269 6.83236 80.2018 6.65661C80.5767 6.48086 80.9918 6.40857 81.4041 6.44721C81.8768 6.40859 82.3509 6.50371 82.7721 6.7217C83.1934 6.9397 83.5448 7.27177 83.7863 7.68C84.2694 6.83041 85.0192 6.44721 86.2018 6.44721C87.6345 6.44721 88.5341 6.98029 88.9173 8.07984C89.1091 8.77915 89.1878 9.50465 89.1505 10.2288V15.0767H87.4513V10.3954C87.4513 8.61293 87.0181 7.8966 85.9353 7.8966C84.8024 7.8966 84.3528 8.69619 84.3528 10.6787V15.0767H82.6536V10.4121C82.6536 8.59629 82.237 7.8966 81.1376 7.8966C79.9881 7.8966 79.5382 8.67955 79.5382 10.7287V15.0767H77.8391V6.61381Z" fill="#7A48FF"/>
<path d="M99.4468 9.56249C99.4468 8.3297 98.9638 7.81324 97.7977 7.81324C97.4427 7.8051 97.0906 7.87729 96.7675 8.02442C96.4443 8.17156 96.1587 8.38983 95.9318 8.66292L94.7656 7.79661C95.5154 6.8804 96.5315 6.4472 97.9642 6.4472C99.3802 6.4472 100.346 6.89704 100.813 7.77999C101.063 8.24646 101.146 8.79618 101.146 9.84573V15.0767H99.7966L99.68 14.5269C99.147 15.06 98.5306 15.2433 97.2979 15.2433C95.1656 15.2433 94.3825 14.5602 94.3825 12.6611C94.3825 10.7119 95.182 10.0456 97.581 10.0456H99.4467L99.4468 9.56249ZM97.7644 11.245C96.4816 11.245 95.9983 11.6282 95.9983 12.6278C95.9983 13.594 96.4315 13.9105 97.7143 13.9105C98.5138 13.9105 98.9803 13.7606 99.247 13.4107C99.4276 13.0865 99.4977 12.7122 99.4468 12.3446V11.245L97.7644 11.245Z" fill="#7A48FF"/>
<path d="M102.629 7.97983V6.61381H103.612L103.695 4.03171H105.311V6.61381H106.977V7.97983H105.311V12.078C105.311 13.3107 105.644 13.7106 106.744 13.6772H107.01V15.0767H106.711C104.178 15.0767 103.612 14.4936 103.612 11.9115V7.97983H102.629Z" fill="#7A48FF"/>
<path d="M59.2303 17.011H61.0129V27.4396H66.4103V28.9056H59.2303V17.011Z" fill="#7A48FF"/>
<path d="M68.4432 16.9277H70.1424V18.8601H68.4432V16.9277ZM68.4432 20.4428H70.1424V28.9056H68.4432V20.4428Z" fill="#7A48FF"/>
<path d="M72.9247 20.4428H74.224L74.3574 21.2923C74.8904 20.576 75.5568 20.2762 76.6729 20.2762C78.1557 20.2762 79.105 20.826 79.505 21.9088C79.7042 22.6068 79.7885 23.3326 79.7548 24.0578V28.9056H78.0555V24.2411C78.0555 22.4419 77.5892 21.7255 76.3896 21.7255C75.107 21.7255 74.6239 22.5085 74.6239 24.5743V28.9056H72.9248L72.9247 20.4428Z" fill="#7A48FF"/>
<path d="M88.4014 27.6062C87.735 28.6058 86.752 29.0723 85.3361 29.0723C83.0038 29.0723 81.8709 27.7562 81.8709 25.0574V24.4411C81.8709 21.6089 82.9537 20.2762 85.2861 20.2762C86.7021 20.2762 87.6517 20.7593 88.2347 21.7755L86.9686 22.4919C86.8125 22.2186 86.5832 21.9942 86.3066 21.8441C86.03 21.694 85.7169 21.6241 85.4027 21.6422C84.1532 21.6422 83.5701 22.4751 83.5701 24.3076V25.224C83.5701 26.8566 84.2032 27.7062 85.4359 27.7062C85.7672 27.7273 86.0982 27.6615 86.3962 27.5154C86.6942 27.3694 86.9489 27.148 87.1351 26.8732L88.4014 27.6062Z" fill="#7A48FF"/>
<path d="M89.6177 24.0245C89.6177 21.4257 90.7173 20.2762 93.1996 20.2762C95.6649 20.2762 96.7646 21.4257 96.7646 24.0245V25.3239C96.7646 27.9228 95.6649 29.0723 93.1996 29.0723C90.7173 29.0723 89.6177 27.9228 89.6177 25.3239V24.0245ZM95.0652 24.1411C95.0652 22.4085 94.4988 21.6422 93.1827 21.6422C91.8835 21.6422 91.3169 22.4085 91.3169 24.1411V25.2073C91.3169 26.9399 91.8835 27.7062 93.1827 27.7062C94.4988 27.7062 95.0652 26.9399 95.0652 25.2073V24.1411Z" fill="#7A48FF"/>
<path d="M100.696 17.011V25.907C100.696 27.1397 101.03 27.523 102.146 27.523H102.512V28.9056H102.079C99.6136 28.9056 98.9971 28.2726 98.9971 25.7405V17.011H100.696Z" fill="#7A48FF"/>
<path d="M104.028 20.4428H105.328L105.461 21.2923C105.994 20.576 106.661 20.2762 107.777 20.2762C109.259 20.2762 110.209 20.826 110.609 21.9088C110.808 22.6069 110.892 23.3326 110.859 24.0578V28.9056H109.16V24.2411C109.16 22.4419 108.693 21.7255 107.494 21.7255C106.211 21.7255 105.728 22.5085 105.728 24.5743V28.9056H104.028V20.4428Z" fill="#7A48FF"/>
<path d="M67.0601 39.7858C66.9435 41.835 65.5443 42.9012 63.0452 42.9012C61.4627 42.9012 60.3965 42.4181 59.6802 41.4185C59.1472 40.6522 58.9472 39.7193 58.9472 38.0368V35.5545C58.9472 33.7386 59.1969 32.7557 59.8633 31.9727C60.5798 31.1065 61.5793 30.7068 63.0452 30.7068C65.4774 30.7068 66.8102 31.8062 66.9268 33.8718L65.2776 34.0053C65.1277 32.789 64.3781 32.1561 63.0953 32.1561C61.3793 32.1561 60.7297 33.1223 60.7297 35.6712V37.9368C60.7297 40.5022 61.3793 41.4517 63.0953 41.4517C64.4446 41.4517 65.2277 40.8188 65.3942 39.6027L67.0601 39.7858Z" fill="#7A48FF"/>
<path d="M70.2923 39.2027C70.2923 40.7354 71.0252 41.5517 72.3914 41.5517C72.7443 41.5813 73.0989 41.5186 73.4202 41.3696C73.7415 41.2206 74.0185 40.9906 74.224 40.7021L75.4899 41.4517C74.7902 42.4846 73.8409 42.9012 72.2249 42.9012C69.7092 42.9012 68.5931 41.6683 68.5931 38.8863V38.2365C68.5931 35.3379 69.6427 34.1051 72.1249 34.1051C74.6071 34.1051 75.6566 35.3379 75.6566 38.2365V38.903H70.2923V39.2027ZM74.0406 37.6869V37.5202C74.0406 36.1542 73.3908 35.4213 72.175 35.4213C71.8721 35.3849 71.5651 35.4361 71.2904 35.569C71.0158 35.7019 70.7851 35.9108 70.6257 36.1709C70.4023 36.5913 70.2877 37.0608 70.2923 37.5368V37.6869L74.0406 37.6869Z" fill="#7A48FF"/>
<path d="M77.7894 34.2718H79.0888L79.222 35.1214C79.755 34.405 80.4215 34.1051 81.5375 34.1051C83.0203 34.1051 83.9698 34.6549 84.3696 35.7377C84.5689 36.4357 84.6533 37.1615 84.6197 37.8867V42.7345H82.9203V38.07C82.9203 36.2709 82.454 35.5545 81.2544 35.5545C79.9718 35.5545 79.4885 36.3374 79.4885 38.4032V42.7345H77.7894V34.2718Z" fill="#7A48FF"/>
<path d="M86.6025 35.6377V34.2718H87.5853L87.6685 31.6896H89.2847V34.2718H90.9506V35.6377H89.2847V39.7359C89.2847 40.9686 89.6177 41.3686 90.7173 41.3351H90.9838V42.7345H90.6839C88.1518 42.7345 87.5853 42.1514 87.5853 39.5694V35.6377H86.6025Z" fill="#7A48FF"/>
<path d="M94.3825 39.2027C94.3825 40.7354 95.1155 41.5517 96.4814 41.5517C96.8343 41.5814 97.1889 41.5186 97.5102 41.3696C97.8315 41.2207 98.1085 40.9906 98.3138 40.7021L99.5802 41.4517C98.8805 42.4846 97.9307 42.9012 96.3149 42.9012C93.7994 42.9012 92.6832 41.6683 92.6832 38.8863V38.2365C92.6832 35.3379 93.7327 34.1051 96.2149 34.1051C98.6972 34.1051 99.7467 35.3379 99.7467 38.2365V38.903H94.3825V39.2027ZM98.1307 37.6869V37.5202C98.1307 36.1542 97.4811 35.4213 96.2648 35.4213C95.9619 35.3849 95.655 35.4362 95.3803 35.5691C95.1057 35.7019 94.875 35.9108 94.7155 36.1709C94.4923 36.5913 94.3778 37.0609 94.3825 37.5368V37.6869L98.1307 37.6869Z" fill="#7A48FF"/>
<path d="M101.846 34.2718H103.162L103.345 34.9881C103.56 34.6906 103.847 34.4531 104.18 34.2985C104.512 34.1438 104.879 34.0773 105.244 34.1051C105.85 34.1028 106.445 34.2701 106.96 34.5882L106.227 36.0042C105.906 35.7303 105.5 35.5771 105.078 35.5712C103.995 35.5712 103.545 36.4707 103.545 38.6199V42.7346H101.846V34.2718Z" fill="#7A48FF"/>
</g>
<defs>
<clipPath id="clip0">
<rect width="110.859" height="48" fill="white" transform="translate(0 -1)"/>
</clipPath>
</defs>
</svg>
